<svg width="56" height="26" viewBox="0 0 56 26" fill="none" xmlns="http://www.w3.org/2000/svg">
<rect x="0.5" y="0.5" width="55" height="25" rx="12.5" fill="white"/>
<rect x="0.5" y="0.5" width="55" height="25" rx="12.5" stroke="#D4D4D5"/>
<path d="M11.5527 13.8184H9.33203V12.6523H11.5527C11.9395 12.6523 12.252 12.5898 12.4902 12.4648C12.7285 12.3398 12.9023 12.168 13.0117 11.9492C13.125 11.7266 13.1816 11.4727 13.1816 11.1875C13.1816 10.918 13.125 10.666 13.0117 10.4316C12.9023 10.1934 12.7285 10.002 12.4902 9.85742C12.252 9.71289 11.9395 9.64062 11.5527 9.64062H9.7832V17H8.3125V8.46875H11.5527C12.2129 8.46875 12.7734 8.58594 13.2344 8.82031C13.6992 9.05078 14.0527 9.37109 14.2949 9.78125C14.5371 10.1875 14.6582 10.6523 14.6582 11.1758C14.6582 11.7266 14.5371 12.1992 14.2949 12.5938C14.0527 12.9883 13.6992 13.291 13.2344 13.502C12.7734 13.7129 12.2129 13.8184 11.5527 13.8184ZM19.3398 15.7285V12.7051C19.3398 12.4785 19.2988 12.2832 19.2168 12.1191C19.1348 11.9551 19.0098 11.8281 18.8418 11.7383C18.6777 11.6484 18.4707 11.6035 18.2207 11.6035C17.9902 11.6035 17.791 11.6426 17.623 11.7207C17.4551 11.7988 17.3242 11.9043 17.2305 12.0371C17.1367 12.1699 17.0898 12.3203 17.0898 12.4883H15.6836C15.6836 12.2383 15.7441 11.9961 15.8652 11.7617C15.9863 11.5273 16.1621 11.3184 16.3926 11.1348C16.623 10.9512 16.8984 10.8066 17.2188 10.7012C17.5391 10.5957 17.8984 10.543 18.2969 10.543C18.7734 10.543 19.1953 10.623 19.5625 10.7832C19.9336 10.9434 20.2246 11.1855 20.4355 11.5098C20.6504 11.8301 20.7578 12.2324 20.7578 12.7168V15.5352C20.7578 15.8242 20.7773 16.084 20.8164 16.3145C20.8594 16.541 20.9199 16.7383 20.998 16.9062V17H19.5508C19.4844 16.8477 19.4316 16.6543 19.3926 16.4199C19.3574 16.1816 19.3398 15.9512 19.3398 15.7285ZM19.5449 13.1445L19.5566 14.0176H18.543C18.2812 14.0176 18.0508 14.043 17.8516 14.0938C17.6523 14.1406 17.4863 14.2109 17.3535 14.3047C17.2207 14.3984 17.1211 14.5117 17.0547 14.6445C16.9883 14.7773 16.9551 14.9277 16.9551 15.0957C16.9551 15.2637 16.9941 15.418 17.0723 15.5586C17.1504 15.6953 17.2637 15.8027 17.4121 15.8809C17.5645 15.959 17.748 15.998 17.9629 15.998C18.252 15.998 18.5039 15.9395 18.7188 15.8223C18.9375 15.7012 19.1094 15.5547 19.2344 15.3828C19.3594 15.207 19.4258 15.041 19.4336 14.8848L19.8906 15.5117C19.8438 15.6719 19.7637 15.8438 19.6504 16.0273C19.5371 16.2109 19.3887 16.3867 19.2051 16.5547C19.0254 16.7188 18.8086 16.8535 18.5547 16.959C18.3047 17.0645 18.0156 17.1172 17.6875 17.1172C17.2734 17.1172 16.9043 17.0352 16.5801 16.8711C16.2559 16.7031 16.002 16.4785 15.8184 16.1973C15.6348 15.9121 15.543 15.5898 15.543 15.2305C15.543 14.8945 15.6055 14.5977 15.7305 14.3398C15.8594 14.0781 16.0469 13.8594 16.293 13.6836C16.543 13.5078 16.8477 13.375 17.207 13.2852C17.5664 13.1914 17.9766 13.1445 18.4375 13.1445H19.5449ZM23.6523 11.8672V17H22.2402V10.6602H23.5879L23.6523 11.8672ZM25.5918 10.6191L25.5801 11.9316C25.4941 11.916 25.4004 11.9043 25.2988 11.8965C25.2012 11.8887 25.1035 11.8848 25.0059 11.8848C24.7637 11.8848 24.5508 11.9199 24.3672 11.9902C24.1836 12.0566 24.0293 12.1543 23.9043 12.2832C23.7832 12.4082 23.6895 12.5605 23.623 12.7402C23.5566 12.9199 23.5176 13.1211 23.5059 13.3438L23.1836 13.3672C23.1836 12.9688 23.2227 12.5996 23.3008 12.2598C23.3789 11.9199 23.4961 11.6211 23.6523 11.3633C23.8125 11.1055 24.0117 10.9043 24.25 10.7598C24.4922 10.6152 24.7715 10.543 25.0879 10.543C25.1738 10.543 25.2656 10.5508 25.3633 10.5664C25.4648 10.582 25.541 10.5996 25.5918 10.6191ZM27.9004 8V17H26.4824V8H27.9004ZM31.8379 10.6602L29.0781 13.7188L27.5664 15.2656L27.1973 14.0703L28.3398 12.6582L30.1328 10.6602H31.8379ZM30.4375 17L28.3809 14.0234L29.2715 13.0332L32.0723 17H30.4375ZM34.2461 10.6602V17H32.8281V10.6602H34.2461ZM32.7344 8.99609C32.7344 8.78125 32.8047 8.60352 32.9453 8.46289C33.0898 8.31836 33.2891 8.24609 33.543 8.24609C33.793 8.24609 33.9902 8.31836 34.1348 8.46289C34.2793 8.60352 34.3516 8.78125 34.3516 8.99609C34.3516 9.20703 34.2793 9.38281 34.1348 9.52344C33.9902 9.66406 33.793 9.73438 33.543 9.73438C33.2891 9.73438 33.0898 9.66406 32.9453 9.52344C32.8047 9.38281 32.7344 9.20703 32.7344 8.99609ZM37.1934 12.0137V17H35.7812V10.6602H37.1113L37.1934 12.0137ZM36.9414 13.5957L36.4844 13.5898C36.4883 13.1406 36.5508 12.7285 36.6719 12.3535C36.7969 11.9785 36.9688 11.6562 37.1875 11.3867C37.4102 11.1172 37.6758 10.9102 37.9844 10.7656C38.293 10.6172 38.6367 10.543 39.0156 10.543C39.3203 10.543 39.5957 10.5859 39.8418 10.6719C40.0918 10.7539 40.3047 10.8887 40.4805 11.0762C40.6602 11.2637 40.7969 11.5078 40.8906 11.8086C40.9844 12.1055 41.0312 12.4707 41.0312 12.9043V17H39.6133V12.8984C39.6133 12.5938 39.5684 12.3535 39.4785 12.1777C39.3926 11.998 39.2656 11.8711 39.0977 11.7969C38.9336 11.7188 38.7285 11.6797 38.4824 11.6797C38.2402 11.6797 38.0234 11.7305 37.832 11.832C37.6406 11.9336 37.4785 12.0723 37.3457 12.248C37.2168 12.4238 37.1172 12.627 37.0469 12.8574C36.9766 13.0879 36.9414 13.334 36.9414 13.5957ZM46.5332 10.6602H47.8164V16.8242C47.8164 17.3945 47.6953 17.8789 47.4531 18.2773C47.2109 18.6758 46.873 18.9785 46.4395 19.1855C46.0059 19.3965 45.5039 19.502 44.9336 19.502C44.6914 19.502 44.4219 19.4668 44.125 19.3965C43.832 19.3262 43.5469 19.2129 43.2695 19.0566C42.9961 18.9043 42.7676 18.7031 42.584 18.4531L43.2461 17.6211C43.4727 17.8906 43.7227 18.0879 43.9961 18.2129C44.2695 18.3379 44.5566 18.4004 44.8574 18.4004C45.1816 18.4004 45.457 18.3398 45.6836 18.2188C45.9141 18.1016 46.0918 17.9277 46.2168 17.6973C46.3418 17.4668 46.4043 17.1855 46.4043 16.8535V12.0957L46.5332 10.6602ZM42.2266 13.9004V13.7773C42.2266 13.2969 42.2852 12.8594 42.4023 12.4648C42.5195 12.0664 42.6875 11.7246 42.9062 11.4395C43.125 11.1504 43.3906 10.9297 43.7031 10.7773C44.0156 10.6211 44.3691 10.543 44.7637 10.543C45.1738 10.543 45.5234 10.6172 45.8125 10.7656C46.1055 10.9141 46.3496 11.127 46.5449 11.4043C46.7402 11.6777 46.8926 12.0059 47.002 12.3887C47.1152 12.7676 47.1992 13.1895 47.2539 13.6543V14.0469C47.2031 14.5 47.1172 14.9141 46.9961 15.2891C46.875 15.6641 46.7148 15.9883 46.5156 16.2617C46.3164 16.5352 46.0703 16.7461 45.7773 16.8945C45.4883 17.043 45.1465 17.1172 44.752 17.1172C44.3652 17.1172 44.0156 17.0371 43.7031 16.877C43.3945 16.7168 43.1289 16.4922 42.9062 16.2031C42.6875 15.9141 42.5195 15.5742 42.4023 15.1836C42.2852 14.7891 42.2266 14.3613 42.2266 13.9004ZM43.6387 13.7773V13.9004C43.6387 14.1895 43.666 14.459 43.7207 14.709C43.7793 14.959 43.8672 15.1797 43.9844 15.3711C44.1055 15.5586 44.2578 15.707 44.4414 15.8164C44.6289 15.9219 44.8496 15.9746 45.1035 15.9746C45.4355 15.9746 45.707 15.9043 45.918 15.7637C46.1328 15.623 46.2969 15.4336 46.4102 15.1953C46.5273 14.9531 46.6094 14.6836 46.6562 14.3867V13.3262C46.6328 13.0957 46.584 12.8809 46.5098 12.6816C46.4395 12.4824 46.3438 12.3086 46.2227 12.1602C46.1016 12.0078 45.9492 11.8906 45.7656 11.8086C45.582 11.7227 45.3652 11.6797 45.1152 11.6797C44.8613 11.6797 44.6406 11.7344 44.4531 11.8438C44.2656 11.9531 44.1113 12.1035 43.9902 12.2949C43.873 12.4863 43.7852 12.709 43.7266 12.9629C43.668 13.2168 43.6387 13.4883 43.6387 13.7773Z" fill="#68686E"/>
</svg>
