<svg width="56" height="26" viewBox="0 0 56 26" fill="none" xmlns="http://www.w3.org/2000/svg">
<rect x="0.5" y="0.5" width="55" height="25" rx="12.5" fill="white"/>
<rect x="0.5" y="0.5" width="55" height="25" rx="12.5" stroke="#FBEBD0"/>
<path d="M9.53711 8.46875H10.8496L13.3164 15.0488L15.7773 8.46875H17.0898L13.832 17H12.7891L9.53711 8.46875ZM8.93945 8.46875H10.1875L10.4043 14.1641V17H8.93945V8.46875ZM16.4395 8.46875H17.6934V17H16.2227V14.1641L16.4395 8.46875ZM22.873 15.7285V12.7051C22.873 12.4785 22.832 12.2832 22.75 12.1191C22.668 11.9551 22.543 11.8281 22.375 11.7383C22.2109 11.6484 22.0039 11.6035 21.7539 11.6035C21.5234 11.6035 21.3242 11.6426 21.1562 11.7207C20.9883 11.7988 20.8574 11.9043 20.7637 12.0371C20.6699 12.1699 20.623 12.3203 20.623 12.4883H19.2168C19.2168 12.2383 19.2773 11.9961 19.3984 11.7617C19.5195 11.5273 19.6953 11.3184 19.9258 11.1348C20.1562 10.9512 20.4316 10.8066 20.752 10.7012C21.0723 10.5957 21.4316 10.543 21.8301 10.543C22.3066 10.543 22.7285 10.623 23.0957 10.7832C23.4668 10.9434 23.7578 11.1855 23.9688 11.5098C24.1836 11.8301 24.291 12.2324 24.291 12.7168V15.5352C24.291 15.8242 24.3105 16.084 24.3496 16.3145C24.3926 16.541 24.4531 16.7383 24.5312 16.9062V17H23.084C23.0176 16.8477 22.9648 16.6543 22.9258 16.4199C22.8906 16.1816 22.873 15.9512 22.873 15.7285ZM23.0781 13.1445L23.0898 14.0176H22.0762C21.8145 14.0176 21.584 14.043 21.3848 14.0938C21.1855 14.1406 21.0195 14.2109 20.8867 14.3047C20.7539 14.3984 20.6543 14.5117 20.5879 14.6445C20.5215 14.7773 20.4883 14.9277 20.4883 15.0957C20.4883 15.2637 20.5273 15.418 20.6055 15.5586C20.6836 15.6953 20.7969 15.8027 20.9453 15.8809C21.0977 15.959 21.2812 15.998 21.4961 15.998C21.7852 15.998 22.0371 15.9395 22.252 15.8223C22.4707 15.7012 22.6426 15.5547 22.7676 15.3828C22.8926 15.207 22.959 15.041 22.9668 14.8848L23.4238 15.5117C23.377 15.6719 23.2969 15.8438 23.1836 16.0273C23.0703 16.2109 22.9219 16.3867 22.7383 16.5547C22.5586 16.7188 22.3418 16.8535 22.0879 16.959C21.8379 17.0645 21.5488 17.1172 21.2207 17.1172C20.8066 17.1172 20.4375 17.0352 20.1133 16.8711C19.7891 16.7031 19.5352 16.4785 19.3516 16.1973C19.168 15.9121 19.0762 15.5898 19.0762 15.2305C19.0762 14.8945 19.1387 14.5977 19.2637 14.3398C19.3926 14.0781 19.5801 13.8594 19.8262 13.6836C20.0762 13.5078 20.3809 13.375 20.7402 13.2852C21.0996 13.1914 21.5098 13.1445 21.9707 13.1445H23.0781ZM27.168 12.0137V17H25.7559V10.6602H27.0859L27.168 12.0137ZM26.916 13.5957L26.459 13.5898C26.4629 13.1406 26.5254 12.7285 26.6465 12.3535C26.7715 11.9785 26.9434 11.6562 27.1621 11.3867C27.3848 11.1172 27.6504 10.9102 27.959 10.7656C28.2676 10.6172 28.6113 10.543 28.9902 10.543C29.2949 10.543 29.5703 10.5859 29.8164 10.6719C30.0664 10.7539 30.2793 10.8887 30.4551 11.0762C30.6348 11.2637 30.7715 11.5078 30.8652 11.8086C30.959 12.1055 31.0059 12.4707 31.0059 12.9043V17H29.5879V12.8984C29.5879 12.5938 29.543 12.3535 29.4531 12.1777C29.3672 11.998 29.2402 11.8711 29.0723 11.7969C28.9082 11.7188 28.7031 11.6797 28.457 11.6797C28.2148 11.6797 27.998 11.7305 27.8066 11.832C27.6152 11.9336 27.4531 12.0723 27.3203 12.248C27.1914 12.4238 27.0918 12.627 27.0215 12.8574C26.9512 13.0879 26.916 13.334 26.916 13.5957ZM36.2617 15.5059V10.6602H37.6797V17H36.3438L36.2617 15.5059ZM36.4609 14.1875L36.9355 14.1758C36.9355 14.6016 36.8887 14.9941 36.7949 15.3535C36.7012 15.709 36.5566 16.0195 36.3613 16.2852C36.166 16.5469 35.916 16.752 35.6113 16.9004C35.3066 17.0449 34.9414 17.1172 34.5156 17.1172C34.207 17.1172 33.9238 17.0723 33.666 16.9824C33.4082 16.8926 33.1855 16.7539 32.998 16.5664C32.8145 16.3789 32.6719 16.1348 32.5703 15.834C32.4688 15.5332 32.418 15.1738 32.418 14.7559V10.6602H33.8301V14.7676C33.8301 14.998 33.8574 15.1914 33.9121 15.3477C33.9668 15.5 34.041 15.623 34.1348 15.7168C34.2285 15.8105 34.3379 15.877 34.4629 15.916C34.5879 15.9551 34.7207 15.9746 34.8613 15.9746C35.2637 15.9746 35.5801 15.8965 35.8105 15.7402C36.0449 15.5801 36.2109 15.3652 36.3086 15.0957C36.4102 14.8262 36.4609 14.5234 36.4609 14.1875ZM42.7012 15.7285V12.7051C42.7012 12.4785 42.6602 12.2832 42.5781 12.1191C42.4961 11.9551 42.3711 11.8281 42.2031 11.7383C42.0391 11.6484 41.832 11.6035 41.582 11.6035C41.3516 11.6035 41.1523 11.6426 40.9844 11.7207C40.8164 11.7988 40.6855 11.9043 40.5918 12.0371C40.498 12.1699 40.4512 12.3203 40.4512 12.4883H39.0449C39.0449 12.2383 39.1055 11.9961 39.2266 11.7617C39.3477 11.5273 39.5234 11.3184 39.7539 11.1348C39.9844 10.9512 40.2598 10.8066 40.5801 10.7012C40.9004 10.5957 41.2598 10.543 41.6582 10.543C42.1348 10.543 42.5566 10.623 42.9238 10.7832C43.2949 10.9434 43.5859 11.1855 43.7969 11.5098C44.0117 11.8301 44.1191 12.2324 44.1191 12.7168V15.5352C44.1191 15.8242 44.1387 16.084 44.1777 16.3145C44.2207 16.541 44.2812 16.7383 44.3594 16.9062V17H42.9121C42.8457 16.8477 42.793 16.6543 42.7539 16.4199C42.7188 16.1816 42.7012 15.9512 42.7012 15.7285ZM42.9062 13.1445L42.918 14.0176H41.9043C41.6426 14.0176 41.4121 14.043 41.2129 14.0938C41.0137 14.1406 40.8477 14.2109 40.7148 14.3047C40.582 14.3984 40.4824 14.5117 40.416 14.6445C40.3496 14.7773 40.3164 14.9277 40.3164 15.0957C40.3164 15.2637 40.3555 15.418 40.4336 15.5586C40.5117 15.6953 40.625 15.8027 40.7734 15.8809C40.9258 15.959 41.1094 15.998 41.3242 15.998C41.6133 15.998 41.8652 15.9395 42.0801 15.8223C42.2988 15.7012 42.4707 15.5547 42.5957 15.3828C42.7207 15.207 42.7871 15.041 42.7949 14.8848L43.252 15.5117C43.2051 15.6719 43.125 15.8438 43.0117 16.0273C42.8984 16.2109 42.75 16.3867 42.5664 16.5547C42.3867 16.7188 42.1699 16.8535 41.916 16.959C41.666 17.0645 41.377 17.1172 41.0488 17.1172C40.6348 17.1172 40.2656 17.0352 39.9414 16.8711C39.6172 16.7031 39.3633 16.4785 39.1797 16.1973C38.9961 15.9121 38.9043 15.5898 38.9043 15.2305C38.9043 14.8945 38.9668 14.5977 39.0918 14.3398C39.2207 14.0781 39.4082 13.8594 39.6543 13.6836C39.9043 13.5078 40.209 13.375 40.5684 13.2852C40.9277 13.1914 41.3379 13.1445 41.7988 13.1445H42.9062ZM47.1074 8V17H45.6895V8H47.1074Z" fill="#ED9600"/>
</svg>
