<?xml version="1.0" encoding="UTF-8"?>
<svg id="Layer_1" xmlns="http://www.w3.org/2000/svg" version="1.1" viewBox="0 0 45.35 45.35">
  <!-- Generator: Adobe Illustrator 29.7.1, SVG Export Plug-In . SVG Version: 2.1.1 Build 8)  -->
  <defs>
    <style>
      .st0 {
        fill: #fff;
        fill-rule: evenodd;
      }

      .st1 {
        fill: #d81a26;
        stroke: #fff;
      }
    </style>
  </defs>
  <path class="st1" d="M22.68,6.18c7.47,0,13.5,5.93,13.5,13.21,0,5.75-3.75,10.64-9,12.46-.65.23-1.17.75-1.58,1.31-.42.57-.79,1.25-1.13,1.86-.35.63-.67,1.2-1,1.6-.34.42-.59.55-.79.55s-.45-.13-.78-.55c-.32-.4-.64-.97-.99-1.6-.34-.62-.71-1.29-1.13-1.86-.42-.56-.94-1.08-1.6-1.31-5.25-1.82-9-6.72-9-12.46,0-7.29,6.03-13.21,13.5-13.21Z"/>
  <path class="st0" d="M22.68,11.85c2.48,0,4.5,1.84,4.5,4.1,0,4.1-4.5,7.62-4.5,7.62,0,0-4.5-3.52-4.5-7.62,0-2.26,2.02-4.1,4.5-4.1ZM25.01,16.18c0,1.29-1.04,2.33-2.33,2.33s-2.33-1.04-2.33-2.33,1.04-2.33,2.33-2.33,2.33,1.04,2.33,2.33ZM25.32,22.03c-.25-.04-.49.13-.53.38-.04.26.12.5.38.54.35.06.67.13.96.22.25.07.5-.08.57-.32.07-.25-.07-.51-.32-.58-.32-.09-.67-.17-1.05-.24h0ZM20.21,22.96c.25-.04.42-.29.38-.54-.04-.26-.28-.43-.53-.38-.37.07-.72.15-1.05.24-.25.07-.39.33-.32.58s.32.39.57.32c.29-.08.61-.16.96-.22h0ZM17.69,23.97c.16-.2.12-.5-.08-.66s-.49-.13-.65.08c-.17.21-.28.47-.28.77s.11.55.28.77c.16.2.45.24.65.08.2-.16.23-.46.08-.66-.07-.09-.08-.15-.08-.19s.01-.1.08-.19ZM28.4,23.39c-.16-.2-.45-.24-.65-.08-.2.16-.23.46-.08.66.07.09.08.15.08.19s-.01.1-.08.19c-.16.2-.12.5.08.66s.49.13.65-.08c.17-.21.28-.47.28-.77s-.11-.55-.28-.77ZM19.25,25.14c-.25-.07-.5.08-.57.32-.07.25.07.51.32.58.32.09.67.17,1.05.24.25.04.49-.13.53-.38.04-.26-.12-.5-.38-.54-.35-.06-.67-.13-.96-.22h0ZM26.37,26.05c.25-.07.39-.33.32-.58s-.32-.39-.57-.32c-.29.08-.61.16-.96.22-.25.04-.42.29-.38.54.04.26.28.43.53.38.37-.07.72-.15,1.05-.24h0ZM22.18,25.56c-.25,0-.47.2-.48.45,0,.26.19.48.45.48h1.06c.25,0,.45-.22.45-.48s-.22-.46-.48-.45h-1Z"/>
</svg>