<?xml version="1.0" encoding="UTF-8"?>
<svg id="Layer_1" xmlns="http://www.w3.org/2000/svg" xmlns:xlink="http://www.w3.org/1999/xlink" version="1.1" viewBox="0 0 45.35 45.35">
  <!-- Generator: Adobe Illustrator 29.7.1, SVG Export Plug-In . SVG Version: 2.1.1 Build 8)  -->
  <defs>
    <style>
      .st0 {
        fill: none;
      }

      .st1 {
        fill: #d81a26;
        stroke: #fff;
      }

      .st2 {
        fill: #fff;
      }

      .st3 {
        clip-path: url(#clippath);
      }
    </style>
    <clipPath id="clippath">
      <rect class="st0" x="8.68" y="5.68" width="28" height="32"/>
    </clipPath>
  </defs>
  <g class="st3">
    <g>
      <path class="st1" d="M22.68,6.18c7.47,0,13.5,5.93,13.5,13.21,0,5.75-3.75,10.64-9,12.46-.65.23-1.17.75-1.58,1.31-.42.57-.79,1.25-1.13,1.86-.35.63-.67,1.2-1,1.6-.34.42-.59.55-.79.55s-.45-.13-.78-.55c-.32-.4-.64-.97-.99-1.6-.34-.62-.71-1.29-1.13-1.86-.42-.56-.94-1.08-1.6-1.31-5.25-1.82-9-6.72-9-12.46,0-7.29,6.03-13.21,13.5-13.21Z"/>
      <path class="st2" d="M27.82,12.03c0-.27.21-.48.48-.48h.75c.27,0,.48.21.48.48v4.14c0,.27-.21.48-.48.48h-.75c-.27,0-.48-.21-.48-.48v-4.14ZM28.06,18.96c-.16-.17-.24-.38-.24-.62s.08-.44.24-.6c.17-.16.38-.24.62-.24s.44.08.6.24c.17.16.26.36.26.6s-.09.44-.26.62c-.16.16-.36.24-.6.24s-.44-.08-.62-.24Z"/>
      <path class="st2" d="M25.17,17.11c0,1.89-1.57,3.43-3.51,3.43s-3.51-1.54-3.51-3.43,1.57-3.43,3.51-3.43,3.51,1.54,3.51,3.43Z"/>
      <path class="st2" d="M28.68,24.96c0-2.28-4.66-3.43-7-3.43s-7,1.15-7,3.43c0,.95.79,1.72,1.76,1.72h.85c0-1.15.47-2.25,1.29-3.06.83-.81,1.95-1.27,3.13-1.27s2.3.46,3.13,1.27c.83.81,1.29,1.91,1.29,3.06h.85c.96,0,1.73-.78,1.7-1.72Z"/>
      <path class="st2" d="M21.68,23.58c-.84,0-1.65.33-2.24.91-.59.58-.93,1.37-.93,2.19h6.38c0-.41-.08-.82-.25-1.2-.16-.38-.4-.72-.7-1.01-.3-.29-.65-.52-1.04-.67-.39-.15-.81-.23-1.23-.22Z"/>
    </g>
  </g>
</svg>