<?xml version="1.0" encoding="UTF-8"?>
<svg id="Layer_1" xmlns="http://www.w3.org/2000/svg" version="1.1" viewBox="0 0 45.35 45.35">
  <!-- Generator: Adobe Illustrator 29.7.1, SVG Export Plug-In . SVG Version: 2.1.1 Build 8)  -->
  <defs>
    <style>
      .st0 {
        fill: none;
      }

      .st1 {
        fill-rule: evenodd;
      }

      .st1, .st2 {
        fill: #fff;
      }

      .st3 {
        fill: #d81a26;
      }
    </style>
  </defs>
  <rect class="st0" x="8.68" y="5.68" width="28" height="32"/>
  <path class="st3" d="M22.68,6.18c7.47,0,13.5,5.93,13.5,13.21,0,5.75-3.75,10.64-9,12.46-.65.23-1.17.75-1.58,1.31-.42.57-.79,1.25-1.13,1.86-.35.63-.67,1.2-1,1.6-.34.42-.59.55-.79.55s-.45-.13-.78-.55c-.32-.4-.64-.97-.99-1.6-.34-.62-.71-1.29-1.13-1.86-.42-.56-.94-1.08-1.6-1.31-5.25-1.82-9-6.72-9-12.46,0-7.29,6.03-13.21,13.5-13.21Z"/>
  <path class="st2" d="M22.68,37.68c-.53,0-.92-.42-1.17-.73-.36-.45-.7-1.07-1.03-1.67-.36-.66-.71-1.28-1.1-1.81-.45-.61-.9-.98-1.36-1.14-5.58-1.93-9.33-7.13-9.33-12.93,0-7.56,6.28-13.71,14-13.71s14,6.15,14,13.71c0,5.8-3.75,11-9.33,12.93-.46.16-.9.53-1.35,1.13-.38.51-.72,1.12-1.05,1.71l-.05.09c-.38.69-.7,1.24-1.04,1.67-.26.32-.65.74-1.18.74h0ZM22.68,6.68c-7.17,0-13,5.7-13,12.71,0,5.38,3.48,10.2,8.66,11.99.66.23,1.26.72,1.84,1.49.43.58.81,1.27,1.14,1.87.34.61.66,1.19.97,1.58.26.33.39.36.4.36,0,0,.13-.03.4-.36.3-.37.59-.89.95-1.53l.05-.09c.33-.59.7-1.26,1.12-1.83.57-.77,1.17-1.26,1.82-1.48,5.18-1.79,8.66-6.61,8.66-11.99,0-7.01-5.83-12.71-13-12.71h0Z"/>
  <path class="st2" d="M26.3,21.31h-3.25v-.83l1.41-2.16h-1.41v-1.26h3.21v.81l-.22.38-1.18,1.8h1.44s0,1.26,0,1.26ZM31.65,19.1h-4.75v-1.02l2.51-3.58h-2.51v-1.46h4.73v1l-.02.03-2.53,3.58h2.58v1.44h0Z"/>
  <path class="st1" d="M21.82,18.57c0,1.32-1.07,2.39-2.38,2.39s-2.38-1.07-2.38-2.39,1.07-2.39,2.38-2.39,2.38,1.07,2.38,2.39ZM24.18,24.32c0-1.58-3.16-2.39-4.75-2.39s-4.75.8-4.75,2.39v1.19h1.77c0-.8.32-1.56.88-2.13s1.33-.88,2.12-.88,1.56.32,2.12.88.88,1.33.88,2.13h1.77s-.04-1.19-.04-1.19ZM19.43,23.35c-.57,0-1.12.23-1.52.63-.4.4-.63.95-.63,1.52h4.33c0-.29-.06-.57-.17-.83s-.27-.5-.47-.7c-.2-.2-.44-.36-.71-.47-.26-.11-.55-.16-.83-.16h0Z"/>
</svg>