<?xml version="1.0" encoding="UTF-8"?>
<svg id="Layer_1" xmlns="http://www.w3.org/2000/svg" version="1.1" viewBox="0 0 68.03 68.03">
  <!-- Generator: Adobe Illustrator 29.7.1, SVG Export Plug-In . SVG Version: 2.1.1 Build 8)  -->
  <defs>
    <style>
      .st0 {
        fill: #d81a26;
      }

      .st1 {
        fill: #fff;
      }
    </style>
  </defs>
  <ellipse class="st0" cx="25.02" cy="51.02" rx="6" ry="3.5"/>
  <path class="st1" d="M32.84,15.52l-.31,1.84-.19,1.16h19.88l-8.83,7.23-.81.66.69.78,6.52,7.34h-19.6l-.15.82-2.85,15.18h-1.99l5.67-35.01h1.97M34.02,14.52h-4l-6,37h4l3-16h21l-8-9,11-9h-21.5l.5-3h0Z"/>
  <polyline class="st0" points="32.84 15.52 32.53 17.36 32.34 18.52 33.52 18.52 52.22 18.52 43.39 25.75 42.58 26.41 43.27 27.18 49.79 34.52 31.02 34.52 30.19 34.52 30.04 35.34 27.19 50.52 25.2 50.52 30.87 15.52 32.84 15.52"/>
  <path class="st1" d="M24.02,15.52c5.51,0,10,4.49,10,10,0,4.83-3.44,8.96-8.18,9.84l-.82.15v15.01h-2v-15.01l-.82-.15c-4.74-.87-8.18-5.01-8.18-9.84,0-5.51,4.49-10,10-10M24.02,14.52c-6.08,0-11,4.92-11,11,0,5.39,3.88,9.88,9,10.82v15.18h4v-15.18c5.12-.94,9-5.43,9-10.82,0-6.08-4.92-11-11-11h0Z"/>
  <path class="st0" d="M24.02,15.52c5.51,0,10,4.49,10,10,0,4.83-3.44,8.96-8.18,9.84l-.82.15v15.01h-2v-15.01l-.82-.15c-4.74-.87-8.18-5.01-8.18-9.84,0-5.51,4.49-10,10-10"/>
  <path class="st1" d="M21.31,22.63l-1.93,5.89h-1.56l2.64-7.11h.99s-.14,1.22-.14,1.22ZM22.92,28.52l-1.94-5.89-.16-1.22h1l2.66,7.11h-1.56ZM22.83,25.87v1.15h-3.75v-1.15h3.75ZM29.78,24.34v1.23c0,.53-.06.99-.17,1.38-.11.38-.28.7-.49.95-.21.24-.46.42-.76.54-.29.12-.62.18-.98.18-.29,0-.55-.04-.8-.11s-.47-.19-.67-.35-.36-.35-.51-.59c-.14-.24-.25-.53-.32-.86s-.11-.71-.11-1.14v-1.23c0-.53.06-.99.17-1.37.12-.38.28-.7.49-.94s.47-.42.76-.54.62-.18.98-.18c.29,0,.55.04.8.11s.47.18.67.34c.2.15.37.35.51.59s.25.52.32.85.11.71.11,1.13h0ZM28.37,25.76v-1.61c0-.26-.01-.48-.04-.67-.03-.19-.07-.35-.12-.49-.06-.14-.12-.25-.21-.33-.08-.08-.17-.15-.28-.19-.1-.04-.22-.06-.35-.06-.16,0-.3.03-.42.09s-.22.16-.31.3c-.08.13-.15.31-.2.54-.04.22-.06.49-.06.81v1.61c0,.26.01.48.04.68.03.2.07.36.13.5.06.14.13.25.21.34.08.08.17.15.28.19s.22.06.35.06c.16,0,.29-.03.42-.09.12-.07.23-.17.31-.3.09-.14.15-.32.2-.55.04-.22.06-.5.06-.82h0Z"/>
</svg>