<?xml version="1.0" encoding="UTF-8"?>
<svg id="Layer_1" xmlns="http://www.w3.org/2000/svg" version="1.1" viewBox="0 0 45.35 45.35">
  <!-- Generator: Adobe Illustrator 29.7.1, SVG Export Plug-In . SVG Version: 2.1.1 Build 8)  -->
  <defs>
    <style>
      .st0 {
        fill: #fff;
        fill-rule: evenodd;
      }

      .st1 {
        fill: #d81a26;
        stroke: #fff;
      }
    </style>
  </defs>
  <path class="st1" d="M22.68,6.18c7.47,0,13.5,5.93,13.5,13.21,0,5.75-3.75,10.64-9,12.46-.65.23-1.17.75-1.58,1.31-.42.57-.79,1.25-1.13,1.86-.35.63-.67,1.2-1,1.6-.34.42-.59.55-.79.55s-.45-.13-.78-.55c-.32-.4-.64-.97-.99-1.6-.34-.62-.71-1.29-1.13-1.86-.42-.56-.94-1.08-1.6-1.31-5.25-1.82-9-6.72-9-12.46,0-7.29,6.03-13.21,13.5-13.21Z"/>
  <path class="st0" d="M19.16,19.84v.19c0,.15.02.3.08.43v.49l-2.28,2.11.72-3.28-3.3.11,2.61-2.05-2.59-2.11,3.29.14-.67-3.29,2.44,2.26,1.56-2.96.45,3.28,3.01-1.17-1.54,2.46h-.77c-.28,0-.55.08-.78.23-.23.15-.42.37-.53.63l-.53,1.61h-.26c-.24,0-.46.1-.63.28-.17.17-.27.4-.27.64h0ZM28.47,17.1c.13.1.23.23.3.38l.59,2.08h.65c.09,0,.18.05.25.11.07.07.11.16.11.26v.19c0,.1-.04.19-.11.26s-.16.11-.25.12h-.09l.28.29v4.43c0,.16-.04.32-.15.45-.1.12-.25.2-.41.22h-.47c-.27,0-.55-.38-.55-.67v-1.06h-7.26v1.06c0,.16-.04.32-.15.45-.1.12-.25.2-.41.22h-.47c-.27,0-.55-.38-.55-.67v-4.43l.37-.38h-.09c-.1,0-.19-.05-.26-.12-.07-.07-.11-.16-.12-.26v-.19c0-.1.05-.19.12-.26.07-.07.16-.11.26-.11h.64l.65-1.99c.06-.17.18-.31.33-.41.15-.1.32-.15.5-.15h5.83c.16.02.32.08.45.18h0ZM28.02,17.77h-5.83l-.83,2.45h7.5l-.84-2.45ZM21.5,22.6c.1.04.21.06.32.06s.22-.02.32-.06c.1-.04.19-.1.27-.18s.14-.17.18-.28c.04-.1.06-.21.06-.33,0-.23-.09-.44-.25-.61-.16-.16-.37-.25-.59-.25-.11,0-.22.02-.32.07-.1.04-.19.11-.27.19s-.14.17-.18.28c-.04.1-.06.21-.06.33,0,.11.02.22.06.32s.1.2.18.27c.08.08.17.14.27.18h.01ZM27.99,22.6c.1.04.21.06.32.06s.22-.02.32-.06c.1-.04.19-.1.27-.18s.14-.17.18-.27.06-.21.06-.32-.02-.22-.06-.33c-.04-.1-.1-.2-.18-.28s-.17-.14-.27-.19-.21-.07-.32-.07-.22.02-.32.07-.19.11-.27.19-.14.17-.18.28c-.04.1-.06.21-.06.33,0,.11.02.22.06.32s.1.2.18.27c.08.08.17.14.27.18Z"/>
</svg>