<?xml version="1.0" encoding="UTF-8"?>
<svg id="Layer_1" xmlns="http://www.w3.org/2000/svg" xmlns:xlink="http://www.w3.org/1999/xlink" version="1.1" viewBox="0 0 45.35 45.35">
  <!-- Generator: Adobe Illustrator 29.7.1, SVG Export Plug-In . SVG Version: 2.1.1 Build 8)  -->
  <defs>
    <style>
      .st0 {
        fill: none;
      }

      .st1 {
        fill: #fff;
      }

      .st2 {
        clip-path: url(#clippath);
      }

      .st3 {
        fill: #0095e0;
        stroke: #fff;
      }
    </style>
    <clipPath id="clippath">
      <rect class="st0" x="8.68" y="6.68" width="28" height="32"/>
    </clipPath>
  </defs>
  <g class="st2">
    <path class="st3" d="M13.18,7.68h19c1.93,0,3.5,1.57,3.5,3.5v18c0,1.93-1.57,3.5-3.5,3.5h-5.1c-.32,0-.71.1-.98.42-.34.39-.63.93-.89,1.44-.27.54-.49,1.03-.72,1.44-.36.65-.68,1.22-1.01,1.64-.34.43-.6.57-.8.57s-.46-.13-.79-.56c-.33-.41-.64-.98-1-1.62-.23-.42-.45-.92-.73-1.46-.26-.51-.56-1.06-.9-1.45-.27-.31-.65-.41-.97-.41h-5.11c-1.93,0-3.5-1.57-3.5-3.5V11.18c0-1.93,1.57-3.5,3.5-3.5Z"/>
  </g>
  <path class="st1" d="M23.51,15.18h-4.41v11.16h2.7v-3.76h1.68c1.32,0,2.37-.32,3.13-.96.77-.65,1.16-1.55,1.16-2.66,0-.73-.18-1.39-.53-1.97s-.86-1.03-1.51-1.34c-.64-.31-1.39-.46-2.22-.46h0ZM21.79,17.46h1.76c.47,0,.83.15,1.09.42.26.28.39.63.39,1.09s-.12.76-.37.99c-.26.23-.65.35-1.16.35h-1.71v-2.85h0Z"/>
</svg>