<svg width="24" height="24" viewBox="0 0 24 24" fill="none" xmlns="http://www.w3.org/2000/svg">
<path d="M3.875 10.5556C3.875 9.6352 4.62055 8.88873 5.54098 8.88759L14.08 8.87706C15.002 8.87592 15.7501 9.62306 15.7501 10.5451V13.459C15.7501 14.3794 15.0045 15.1259 14.0841 15.1271L5.54509 15.1376C4.62306 15.1387 3.875 14.3916 3.875 13.4696V10.5556Z" fill="#13131C"/>
<rect x="2.66665" y="7.66665" width="16.9991" height="8.6667" rx="2.6666" stroke="#13131C" stroke-width="1.3333"/>
<path d="M22.4531 12.1667C22.4531 13.1298 22.0357 13.5363 21.6833 13.708C21.435 13.8289 21.2031 13.6095 21.2031 13.3333V11C21.2031 10.7239 21.435 10.5045 21.6833 10.6254C22.0357 10.797 22.4531 11.2035 22.4531 12.1667Z" fill="#13131C"/>
</svg>
