<svg width="24" height="24" viewBox="0 0 24 24" fill="none" xmlns="http://www.w3.org/2000/svg">
<path d="M3.875 10.555C3.875 9.63479 4.62014 8.88843 5.54031 8.88693L11.1621 8.87773C12.0844 8.87622 12.8328 9.62347 12.8328 10.5458V13.4597C12.8328 14.3799 12.0877 15.1262 11.1675 15.1277L5.54577 15.1369C4.62347 15.1384 3.875 14.3912 3.875 13.4689V10.555Z" fill="#13131C"/>
<rect x="2.66665" y="7.66665" width="16.9991" height="8.6667" rx="2.6666" stroke="#13131C" stroke-width="1.3333"/>
<path d="M22.4531 12.1667C22.4531 13.1298 22.0357 13.5363 21.6833 13.708C21.435 13.8289 21.2031 13.6095 21.2031 13.3333V11C21.2031 10.7239 21.435 10.5045 21.6833 10.6254C22.0357 10.797 22.4531 11.2035 22.4531 12.1667Z" fill="#13131C"/>
</svg>
