<svg width="24" height="24" viewBox="0 0 24 24" fill="none" xmlns="http://www.w3.org/2000/svg">
<path d="M19.8 22.6008L17.15 20.0008H6.5C4.96667 20.0008 3.66667 19.4674 2.6 18.4008C1.53333 17.3341 1 16.0341 1 14.5008C1 13.2174 1.396 12.0758 2.188 11.0758C2.97933 10.0758 4 9.43411 5.25 9.15078C5.3 9.01745 5.35 8.88811 5.4 8.76278C5.45 8.63811 5.5 8.50078 5.55 8.35078L1.4 4.20078L2.8 2.80078L21.2 21.2008L19.8 22.6008ZM6.5 18.0008H15.15L7.1 9.95078C7.06667 10.1341 7.04167 10.3091 7.025 10.4758C7.00833 10.6424 7 10.8174 7 11.0008H6.5C5.53333 11.0008 4.70833 11.3424 4.025 12.0258C3.34167 12.7091 3 13.5341 3 14.5008C3 15.4674 3.34167 16.2924 4.025 16.9758C4.70833 17.6591 5.53333 18.0008 6.5 18.0008ZM21.6 18.7508L20.15 17.3508C20.4333 17.1174 20.646 16.8468 20.788 16.5388C20.9293 16.2301 21 15.8841 21 15.5008C21 14.8008 20.7583 14.2091 20.275 13.7258C19.7917 13.2424 19.2 13.0008 18.5 13.0008H17V11.0008C17 9.61745 16.5127 8.43811 15.538 7.46278C14.5627 6.48811 13.3833 6.00078 12 6.00078C11.55 6.00078 11.1167 6.05478 10.7 6.16278C10.2833 6.27145 9.88333 6.44245 9.5 6.67578L8.05 5.22578C8.63333 4.82578 9.25433 4.52145 9.913 4.31278C10.571 4.10478 11.2667 4.00078 12 4.00078C13.95 4.00078 15.604 4.67978 16.962 6.03778C18.3207 7.39645 19 9.05078 19 11.0008C20.15 11.1341 21.1043 11.6298 21.863 12.4878C22.621 13.3464 23 14.3508 23 15.5008C23 16.1508 22.875 16.7548 22.625 17.3128C22.375 17.8714 22.0333 18.3508 21.6 18.7508Z" fill="#13131c"/>
</svg>
