<?xml version="1.0" encoding="UTF-8"?>
<svg id="Layer_1" xmlns="http://www.w3.org/2000/svg" version="1.1" viewBox="0 0 24 24">
  <!-- Generator: Adobe Illustrator 29.7.1, SVG Export Plug-In . SVG Version: 2.1.1 Build 8)  -->
  <defs>
    <style>
      .st0 {
        fill: none;
        stroke: #13131c;
        stroke-width: 1.6px;
      }
    </style>
  </defs>
  <path class="st0" d="M12,6.79c1.07,0,2.06.37,3.01,1.15h0c.97.79,1.53,1.7,1.72,2.73l.11.6.61.04c.75.06,1.39.36,1.94.94h0c.53.56.79,1.21.79,1.98s-.29,1.5-.89,2.11c-.58.58-1.25.86-2.07.86H7.5c-1.03,0-1.89-.35-2.63-1.07-.72-.74-1.07-1.6-1.07-2.63,0-.89.34-1.81.96-2.42s1.45-1.15,2.34-1.25l.42-.04.2-.37c.43-.79,1.02-1.43,1.8-1.92.76-.48,1.41-.71,2.48-.71Z"/>
</svg>