<?xml version="1.0" encoding="UTF-8"?>
<svg id="Layer_1" xmlns="http://www.w3.org/2000/svg" version="1.1" viewBox="0 0 24 24">
  <!-- Generator: Adobe Illustrator 29.7.1, SVG Export Plug-In . SVG Version: 2.1.1 Build 8)  -->
  <defs>
    <style>
      .st0 {
        fill: #13131c;
      }
    </style>
  </defs>
  <path class="st0" d="M14.67,2.2c.16-.12.34-.19.56-.19s.39.08.52.23c.16.12.23.28.23.47.03.19-.02.36-.14.52l-4.83,6.75,8.06.8c.28.03.5.16.66.38.19.19.27.42.23.7,0,.25-.09.47-.28.66l-10.36,9.28c-.16.12-.34.19-.56.19s-.39-.08-.52-.23c-.16-.12-.25-.28-.28-.47,0-.19.06-.36.19-.52l4.83-6.75-8.06-.8c-.28-.03-.52-.14-.7-.33-.16-.22-.23-.45-.23-.7.03-.28.14-.52.33-.7L14.67,2.2Z"/>
</svg>