<svg width="24" height="24" viewBox="0 0 24 24" fill="none" xmlns="http://www.w3.org/2000/svg">
<path d="M12 3.7998C16.5287 3.7998 20.2002 7.47126 20.2002 12C20.2002 16.5287 16.5287 20.2002 12 20.2002C7.47126 20.2002 3.7998 16.5287 3.7998 12C3.7998 7.47126 7.47126 3.7998 12 3.7998Z" stroke="#13131C" stroke-width="1.6" stroke-linecap="round" stroke-linejoin="round"/>
<path d="M20.1 12H18.75" stroke="#13131C" stroke-width="1.2375" stroke-linecap="round" stroke-linejoin="round"/>
<path d="M4.80015 12H3.90015" stroke="#13131C" stroke-width="1.2375" stroke-linecap="round" stroke-linejoin="round"/>
<path d="M12 4.7999V3.8999" stroke="#13131C" stroke-width="1.2375" stroke-linecap="round" stroke-linejoin="round"/>
<path d="M12 20.1002L12 19.2002" stroke="#13131C" stroke-width="1.2375" stroke-linecap="round" stroke-linejoin="round"/>
<path d="M6.88575 16.7859C6.78851 16.9952 7.00525 17.2119 7.2145 17.1147L13.5637 14.1641C13.8285 14.0411 14.0413 13.8283 14.1644 13.5634L17.1149 7.21426C17.2122 7.005 16.9954 6.78826 16.7862 6.88551L10.437 9.83605C10.1722 9.95913 9.95938 10.1719 9.8363 10.4368L6.88575 16.7859ZM12.0003 10.9201C12.5993 10.9201 13.0803 11.4012 13.0803 12.0001C13.0803 12.599 12.5993 13.0801 12.0003 13.0801C11.4014 13.0801 10.9203 12.599 10.9203 12.0001C10.9203 11.4012 11.4014 10.9201 12.0003 10.9201Z" fill="#13131C"/>
</svg>
