<svg width="24" height="24" viewBox="0 0 24 24" fill="none" xmlns="http://www.w3.org/2000/svg">
<path d="M9 19C7.48848 18.753 6.12542 18.3078 4.9108 17.6645C2.97027 16.6529 2 15.4291 2 13.9931C2 12.8183 2.64163 11.774 3.92488 10.8602C5.23944 9.97904 6.92958 9.35898 8.99531 9L8.9953 11.1539C7.52426 11.415 6.31925 11.8229 5.38028 12.3777C4.44131 12.9651 3.97183 13.5036 3.97183 13.9931C3.97183 14.3847 4.28482 14.809 4.9108 15.2659C5.53678 15.7554 6.49139 16.1797 7.77465 16.5386C8.17115 16.6596 8.5796 16.7619 9 16.8456V19Z" fill="#13131C"/>
<path d="M15 19C16.5115 18.753 17.8746 18.3078 19.0892 17.6645C21.0297 16.6529 22 15.4291 22 13.9931C22 12.8183 21.3584 11.774 20.0751 10.8602C18.7606 9.97904 17.0704 9.35898 15.0047 9V11.1539C16.4757 11.415 17.6808 11.8229 18.6197 12.3777C19.5587 12.9651 20.0282 13.5036 20.0282 13.9931C20.0282 14.3847 19.7152 14.809 19.0892 15.2659C18.4632 15.7554 17.5086 16.1797 16.2254 16.5386C15.8289 16.6596 15.4204 16.7619 15 16.8456V19Z" fill="#13131C"/>
<path d="M13 21L11 21L11 6.99986L13 6.99986L13 21Z" fill="#13131C"/>
<path d="M12 1.99989L16 6.99986L8 6.99986L12 1.99989Z" fill="#13131C"/>
</svg>
