<svg width="24" height="24" viewBox="0 0 24 24" fill="none" xmlns="http://www.w3.org/2000/svg">
<path fill-rule="evenodd" clip-rule="evenodd" d="M12 1C15.7221 1 18.75 3.7633 18.75 7.16023C18.75 13.3205 12 18.6006 12 18.6006C12 18.6006 5.25 13.3205 5.25 7.16023C5.25 3.7633 8.27786 1 12 1ZM15.5 7.5C15.5 9.433 13.933 11 12 11C10.067 11 8.5 9.433 8.5 7.5C8.5 5.567 10.067 4 12 4C13.933 4 15.5 5.567 15.5 7.5ZM15.9577 16.2879C15.581 16.2212 15.2225 16.4777 15.157 16.8608C15.0914 17.2439 15.3437 17.6084 15.7204 17.6751C16.239 17.7669 16.7202 17.8767 17.1565 18.001C17.5247 18.106 17.9068 17.8875 18.01 17.5131C18.1132 17.1387 17.8984 16.7502 17.5302 16.6452C17.0439 16.5066 16.5168 16.3868 15.9577 16.2879ZM8.27963 17.6751C8.65632 17.6084 8.90855 17.2439 8.84301 16.8608C8.77746 16.4777 8.41896 16.2212 8.04227 16.2879C7.4832 16.3868 6.9561 16.5066 6.4698 16.6452C6.10164 16.7502 5.88683 17.1387 5.99002 17.5131C6.0932 17.8875 6.47531 18.106 6.84347 18.001C7.27985 17.8767 7.76103 17.7669 8.27963 17.6751ZM4.50825 19.1976C4.74498 18.8923 4.69349 18.4496 4.39324 18.2089C4.09299 17.9681 3.65768 18.0205 3.42095 18.3258C3.17086 18.6484 3 19.0381 3 19.4795C3 19.9209 3.17086 20.3107 3.42095 20.6332C3.65768 20.9386 4.09299 20.9909 4.39324 20.7502C4.69349 20.5094 4.74498 20.0668 4.50825 19.7614C4.403 19.6257 4.38462 19.5343 4.38462 19.4795C4.38462 19.4248 4.403 19.3334 4.50825 19.1976ZM20.5791 18.3258C20.3423 18.0205 19.907 17.9681 19.6068 18.2089C19.3065 18.4496 19.255 18.8923 19.4917 19.1976C19.597 19.3334 19.6154 19.4248 19.6154 19.4795C19.6154 19.5343 19.597 19.6257 19.4917 19.7614C19.255 20.0668 19.3065 20.5094 19.6068 20.7502C19.907 20.9909 20.3423 20.9386 20.5791 20.6332C20.8291 20.3107 21 19.9209 21 19.4795C21 19.0381 20.8291 18.6484 20.5791 18.3258ZM6.84347 20.958C6.47531 20.8531 6.0932 21.0716 5.99002 21.4459C5.88683 21.8203 6.10164 22.2089 6.4698 22.3138C6.9561 22.4525 7.4832 22.5723 8.04227 22.6712C8.41896 22.7378 8.77746 22.4813 8.84301 22.0983C8.90855 21.7152 8.65632 21.3506 8.27963 21.284C7.76103 21.1922 7.27985 21.0824 6.84347 20.958ZM17.5302 22.3138C17.8984 22.2089 18.1132 21.8203 18.01 21.4459C17.9068 21.0716 17.5247 20.8531 17.1565 20.958C16.7202 21.0824 16.239 21.1922 15.7204 21.284C15.3437 21.3506 15.0914 21.7152 15.157 22.0983C15.2225 22.4813 15.581 22.7378 15.9577 22.6712C16.5168 22.5723 17.0439 22.4525 17.5302 22.3138ZM11.2498 21.58C10.8677 21.568 10.5483 21.8734 10.5366 22.2621C10.5249 22.6507 10.8252 22.9754 11.2074 22.9874C11.4685 22.9955 11.7328 22.9997 12 22.9997C12.2672 22.9997 12.5315 22.9955 12.7926 22.9874C13.1748 22.9754 13.4751 22.6507 13.4634 22.2621C13.4517 21.8734 13.1323 21.568 12.7502 21.58C12.5033 21.5877 12.253 21.5916 12 21.5916C11.747 21.5916 11.4967 21.5877 11.2498 21.58Z" fill="#13131C"/>
</svg>
