<svg width="24" height="24" viewBox="0 0 24 24" fill="none" xmlns="http://www.w3.org/2000/svg">
<path d="M15.0049 11C17.0705 11.3509 18.7607 11.9571 20.0752 12.8184C21.3584 13.7115 22 14.7326 22 15.8809C21.9998 17.2842 21.0292 18.48 19.0889 19.4688C17.1171 20.4894 14.7542 21 12 21C9.24579 21 6.88292 20.4894 4.91113 19.4688C2.97082 18.48 2.00022 17.2842 2 15.8809C2 14.7326 2.64164 13.7115 3.9248 12.8184C5.23932 11.9571 6.92947 11.3509 8.99512 11V13.1055C7.52417 13.3607 6.3188 13.7595 5.37988 14.3018C4.4412 14.8758 3.97168 15.4025 3.97168 15.8809C3.97194 16.2635 4.28541 16.6776 4.91113 17.124C5.53707 17.6024 6.49132 18.0173 7.77441 18.3682C9.05767 18.7509 10.4664 18.9424 12 18.9424C13.5336 18.9424 14.9423 18.7509 16.2256 18.3682C17.5087 18.0173 18.4629 17.6024 19.0889 17.124C19.7146 16.6776 20.0281 16.2635 20.0283 15.8809C20.0283 15.4025 19.5588 14.8758 18.6201 14.3018C17.6812 13.7595 16.4758 13.3607 15.0049 13.1055V11Z" fill="#13131C"/>
<path d="M13 16L11 16L11 8L13 8L13 16Z" fill="#13131C"/>
<path d="M12 3.00001L16 8L8 8L12 3.00001Z" fill="#13131C"/>
</svg>
