<?xml version="1.0" encoding="UTF-8"?>
<svg id="Layer_1" xmlns="http://www.w3.org/2000/svg" version="1.1" viewBox="0 0 68.03 68.03">
  <!-- Generator: Adobe Illustrator 29.7.1, SVG Export Plug-In . SVG Version: 2.1.1 Build 8)  -->
  <defs>
    <style>
      .st0 {
        fill: #d81a26;
      }
    </style>
  </defs>
  <path class="st0" d="M35.91,65.15c-.77,1.57-3.01,1.56-3.78,0l-4.94-10.01c-4.63-1.21-8.85-3.62-12.26-7.03-10.55-10.55-10.55-27.63,0-38.18,10.55-10.56,27.63-10.56,38.18-.01,10.55,10.55,10.55,27.63,0,38.18-3.41,3.41-7.63,5.83-12.26,7.03l-4.94,10.01h0ZM38.94,51.26c4.23-.93,8.1-3.05,11.18-6.14,8.9-8.9,8.9-23.31,0-32.22-8.9-8.9-23.31-8.9-32.22,0-8.9,8.9-8.9,23.31,0,32.22,3.08,3.08,6.95,5.2,11.18,6.14.63.14,1.15.55,1.44,1.13l3.49,7.06,3.49-7.06c.28-.57.81-.99,1.44-1.13Z"/>
  <path class="st0" d="M34.13,43.36c1.16,0,2.11-.94,2.11-2.11s-.94-2.11-2.11-2.11-2.11.94-2.11,2.11.94,2.11,2.11,2.11Z"/>
  <path class="st0" d="M32.02,16.78c0-1.16.94-2.11,2.11-2.11s2.11.94,2.11,2.11v16.03c0,1.16-.94,2.11-2.11,2.11s-2.11-.94-2.11-2.11v-16.03Z"/>
</svg>