<?xml version="1.0" encoding="UTF-8"?>
<svg id="Layer_1" xmlns="http://www.w3.org/2000/svg" version="1.1" viewBox="0 0 68.03 68.03">
  <!-- Generator: Adobe Illustrator 29.7.1, SVG Export Plug-In . SVG Version: 2.1.1 Build 8)  -->
  <defs>
    <style>
      .st0 {
        fill: #2ea8e5;
      }
    </style>
  </defs>
  <path class="st0" d="M35.91,64.65c-.77,1.57-3.01,1.56-3.78,0l-4.94-10.01c-4.63-1.21-8.85-3.62-12.26-7.03-10.55-10.55-10.55-27.63,0-38.18s27.63-10.55,38.18,0c10.55,10.55,10.55,27.63,0,38.18-3.41,3.41-7.63,5.83-12.26,7.03l-4.94,10.01ZM38.94,50.76c4.23-.93,8.1-3.05,11.18-6.14,8.9-8.9,8.9-23.31,0-32.22-8.9-8.9-23.31-8.9-32.22,0-8.9,8.9-8.9,23.31,0,32.22,3.08,3.08,6.95,5.2,11.18,6.14.63.14,1.15.55,1.44,1.13l3.49,7.06,3.49-7.06c.28-.57.81-.99,1.44-1.13Z"/>
  <path class="st0" d="M30.95,39.77c-.55,0-1.09-.2-1.52-.59l-9.93-9.14c-.91-.84-.97-2.27-.13-3.18.84-.91,2.27-.97,3.18-.13l8.35,7.68,14.54-14.48c.88-.88,2.31-.87,3.18,0,.88.88.87,2.31,0,3.18l-16.07,16c-.44.44-1.01.66-1.59.66Z"/>
</svg>