<?xml version="1.0" encoding="UTF-8"?>
<svg id="Layer_1" xmlns="http://www.w3.org/2000/svg" version="1.1" viewBox="0 0 24 24">
  <!-- Generator: Adobe Illustrator 29.7.1, SVG Export Plug-In . SVG Version: 2.1.1 Build 8)  -->
  <defs>
    <style>
      .st0 {
        fill: #13131c;
      }
    </style>
  </defs>
  <path class="st0" d="M14.1,14.94v2.55c0,.69-.56,1.24-1.24,1.24h-7.12c-.68,0-1.24-.55-1.24-1.24V5.42c0-.69.56-1.24,1.24-1.24h5.67c.84-.93,1.95-1.62,3.2-1.94-.27-.16-.59-.24-.91-.24H4.9c-1.05,0-1.9.85-1.9,1.89v16.21c0,.5.2.98.56,1.34.35.35.83.56,1.34.56h8.81c.5,0,.98-.21,1.34-.56.35-.36.55-.84.55-1.34v-4.81c-.52-.06-1.02-.18-1.5-.35ZM9.3,20.71c-.28,0-.51-.23-.51-.51s.23-.52.51-.52.51.23.51.52-.23.51-.51.51Z"/>
  <path class="st0" d="M16.33,3.33c2.94,0,5.33,2.39,5.33,5.33s-2.39,5.33-5.33,5.33c-.79,0-1.56-.17-2.29-.52-.18-.09-.37-.13-.57-.13-.13,0-.25.02-.37.05l-1.78.52c-.15.04-.29-.1-.25-.25l.52-1.78c.09-.31.07-.65-.07-.95-.35-.73-.52-1.5-.52-2.29,0-2.94,2.39-5.33,5.33-5.33ZM16.33,2c-3.68,0-6.67,2.99-6.67,6.67,0,1.03.24,1.99.65,2.86l-.8,2.72c-.22.76.48,1.46,1.24,1.24l2.72-.8c.87.41,1.83.65,2.86.65,3.68,0,6.67-2.99,6.67-6.67s-2.99-6.67-6.67-6.67Z"/>
</svg>