<svg width="24" height="24" viewBox="0 0 24 24" fill="none" xmlns="http://www.w3.org/2000/svg">
<g clip-path="url(#clip0_19770_44936)">
<path d="M18.5 18.5V5.5H5.5V18.5H18.5ZM18.5 3.31641C19.0755 3.31641 19.5833 3.53646 20.0234 3.97656C20.4635 4.41667 20.6836 4.92448 20.6836 5.5V18.5C20.6836 19.0755 20.4635 19.5833 20.0234 20.0234C19.5833 20.4635 19.0755 20.6836 18.5 20.6836H5.5C4.92448 20.6836 4.41667 20.4635 3.97656 20.0234C3.53646 19.5833 3.31641 19.0755 3.31641 18.5V5.5C3.31641 4.92448 3.53646 4.41667 3.97656 3.97656C4.41667 3.53646 4.92448 3.31641 5.5 3.31641H18.5Z" fill="#13131C"/>
</g>
<defs>
<clipPath id="clip0_19770_44936">
<rect width="24" height="24" fill="white"/>
</clipPath>
</defs>
</svg>
