<?xml version="1.0" encoding="UTF-8"?>
<svg id="Layer_1" xmlns="http://www.w3.org/2000/svg" version="1.1" viewBox="0 0 24 24">
  <!-- Generator: Adobe Illustrator 29.7.1, SVG Export Plug-In . SVG Version: 2.1.1 Build 8)  -->
  <defs>
    <style>
      .st0 {
        fill: #13131c;
      }
    </style>
  </defs>
  <path class="st0" d="M18.32,22.01H5.67c-.44,0-.87-.18-1.18-.49-.27-.27-.44-.63-.48-1.02,0-.02,0-.14,0-.16v-4.16c0-.2.08-.39.22-.53l1.78-1.78v-1.2h-1.25c-.41,0-.75-.34-.75-.75v-1.74c0-.2.08-.39.22-.53l1.78-1.78V3.67c0-.44.18-.87.49-1.18.27-.27.63-.44,1.02-.48.02,0,.14,0,.16,0h10.53s.08,0,.12,0h.09s.07,0,.11,0c.38.05.73.22.98.48.27.27.44.63.48,1.02,0,.02,0,.14,0,.16v16.67c0,.44-.18.87-.49,1.18s-.74.49-1.18.49ZM5.51,16.49v3.85c0,.06.02.1.04.12.03.03.08.05.12.05h12.65s.09-.02.12-.05.05-.08.05-.12V3.67c0-.06-.02-.1-.04-.12-.02-.02-.04-.03-.07-.04-.01,0-.02,0-.03,0H7.68c-.06,0-.1.02-.12.04-.03.03-.05.08-.05.12v4.2c0,.4-.16.78-.44,1.06l-1.56,1.56v.68h.5c.83,0,1.5.67,1.5,1.5v1.2c0,.4-.16.78-.44,1.06l-1.56,1.56Z"/>
  <path class="st0" d="M10,8.75c-.41,0-.75-.34-.75-.75v-3c0-.41.34-.75.75-.75s.75.34.75.75v3c0,.41-.34.75-.75.75Z"/>
  <path class="st0" d="M12,8.75c-.41,0-.75-.34-.75-.75v-3c0-.41.34-.75.75-.75s.75.34.75.75v3c0,.41-.34.75-.75.75Z"/>
  <path class="st0" d="M14,8.75c-.41,0-.75-.34-.75-.75v-3c0-.41.34-.75.75-.75s.75.34.75.75v3c0,.41-.34.75-.75.75Z"/>
  <path class="st0" d="M16,8.75c-.41,0-.75-.34-.75-.75v-3c0-.41.34-.75.75-.75s.75.34.75.75v3c0,.41-.34.75-.75.75Z"/>
  <path class="st0" d="M13.14,11c-2.13,0-3.86,1.79-3.86,4h-1.29l1.7,1.79,1.73-1.79h-1.29c0-1.72,1.34-3.11,3-3.11s3,1.39,3,3.11-1.34,3.11-3,3.11c-.67,0-1.28-.23-1.78-.61-.2-.15-.48-.16-.65.02-.16.17-.16.44.02.59.66.55,1.5.89,2.42.89,2.13,0,3.86-1.79,3.86-4s-1.73-4-3.86-4Z"/>
</svg>