<svg width="24" height="24" viewBox="0 0 24 24" fill="none" xmlns="http://www.w3.org/2000/svg">
<path d="M5.52136 13.3338H5.00131C3.89674 13.3338 3.00131 12.4384 3.00131 11.3338V8C3.00131 6.89543 3.89674 6 5.00131 6H13.6016C14.7061 6 15.6016 6.89543 15.6016 8V11.3338C15.6016 12.4384 14.7061 13.3338 13.6016 13.3338H11.1015" stroke={props.htmlColor || "#888"} stroke-width="2" stroke-linecap="round"/>
<path d="M18.1649 9.66602H19C20.1046 9.66602 21 10.5614 21 11.666V14.9998C21 16.1044 20.1046 16.9998 19 16.9998H10.3997C9.29518 16.9998 8.39975 16.1044 8.39975 14.9998V11.666C8.39975 10.5614 9.29518 9.66602 10.3997 9.66602H12.8998" stroke={props.htmlColor || "#888"} stroke-width="2" stroke-linecap="round"/>
</svg>
