<svg width="24" height="24" viewBox="0 0 24 24" fill="none" xmlns="http://www.w3.org/2000/svg">
<g clip-path="url(#clip0_16311_9199)">
<path d="M12 14.5C13.3807 14.5 14.5 13.3807 14.5 12C14.5 10.6193 13.3807 9.5 12 9.5C10.6193 9.5 9.5 10.6193 9.5 12C9.5 13.3807 10.6193 14.5 12 14.5Z" stroke="#13131C" stroke-width="1.6" stroke-linecap="round" stroke-linejoin="round"/>
<path d="M18.1654 14.5007C18.0544 14.752 18.0213 15.0308 18.0704 15.3011C18.1194 15.5715 18.2483 15.8209 18.4404 16.0173L18.4904 16.0673C18.6453 16.2221 18.7683 16.4059 18.8521 16.6083C18.936 16.8106 18.9792 17.0275 18.9792 17.2465C18.9792 17.4655 18.936 17.6824 18.8521 17.8847C18.7683 18.087 18.6453 18.2709 18.4904 18.4257C18.3356 18.5806 18.1518 18.7035 17.9494 18.7874C17.7471 18.8713 17.5302 18.9145 17.3112 18.9145C17.0922 18.9145 16.8753 18.8713 16.673 18.7874C16.4706 18.7035 16.2868 18.5806 16.132 18.4257L16.082 18.3757C15.8856 18.1835 15.6362 18.0547 15.3659 18.0056C15.0955 17.9566 14.8167 17.9897 14.5654 18.1007C14.3189 18.2063 14.1087 18.3817 13.9606 18.6053C13.8126 18.8288 13.7331 19.0908 13.732 19.359V19.5007C13.732 19.9427 13.5564 20.3666 13.2439 20.6792C12.9313 20.9917 12.5074 21.1673 12.0654 21.1673C11.6233 21.1673 11.1994 20.9917 10.8869 20.6792C10.5743 20.3666 10.3987 19.9427 10.3987 19.5007V19.4257C10.3922 19.1498 10.303 18.8823 10.1425 18.6579C9.98195 18.4335 9.75764 18.2626 9.4987 18.1673C9.24735 18.0564 8.96854 18.0233 8.69821 18.0723C8.42788 18.1213 8.17843 18.2502 7.98203 18.4423L7.93203 18.4923C7.77724 18.6473 7.59343 18.7702 7.3911 18.8541C7.18877 18.938 6.97189 18.9811 6.75286 18.9811C6.53384 18.9811 6.31696 18.938 6.11463 18.8541C5.9123 18.7702 5.72849 18.6473 5.5737 18.4923C5.41874 18.3375 5.29581 18.1537 5.21193 17.9514C5.12806 17.7491 5.08489 17.5322 5.08489 17.3132C5.08489 17.0941 5.12806 16.8772 5.21193 16.6749C5.29581 16.4726 5.41874 16.2888 5.5737 16.134L5.6237 16.084C5.81581 15.8876 5.94469 15.6381 5.9937 15.3678C6.04272 15.0975 6.00963 14.8187 5.8987 14.5673C5.79306 14.3208 5.61766 14.1106 5.39409 13.9626C5.17051 13.8145 4.90852 13.7351 4.64036 13.734H4.4987C4.05667 13.734 3.63275 13.5584 3.32019 13.2458C3.00763 12.9333 2.83203 12.5093 2.83203 12.0673C2.83203 11.6253 3.00763 11.2014 3.32019 10.8888C3.63275 10.5762 4.05667 10.4007 4.4987 10.4007H4.5737C4.84953 10.3942 5.11704 10.3049 5.34145 10.1444C5.56586 9.9839 5.73679 9.7596 5.83203 9.50065C5.94296 9.2493 5.97605 8.97049 5.92704 8.70016C5.87802 8.42983 5.74915 8.18038 5.55703 7.98398L5.50703 7.93398C5.35207 7.7792 5.22914 7.59538 5.14527 7.39305C5.06139 7.19072 5.01822 6.97384 5.01822 6.75482C5.01822 6.53579 5.06139 6.31891 5.14527 6.11658C5.22914 5.91425 5.35207 5.73044 5.50703 5.57565C5.66182 5.42069 5.84563 5.29776 6.04796 5.21388C6.25029 5.13001 6.46717 5.08684 6.6862 5.08684C6.90522 5.08684 7.1221 5.13001 7.32443 5.21388C7.52676 5.29776 7.71058 5.42069 7.86536 5.57565L7.91536 5.62565C8.11176 5.81777 8.36121 5.94664 8.63154 5.99565C8.90187 6.04467 9.18068 6.01158 9.43203 5.90065H9.4987C9.74517 5.79502 9.95538 5.61961 10.1034 5.39604C10.2515 5.17246 10.331 4.91047 10.332 4.64232V4.50065C10.332 4.05862 10.5076 3.6347 10.8202 3.32214C11.1327 3.00958 11.5567 2.83398 11.9987 2.83398C12.4407 2.83398 12.8646 3.00958 13.1772 3.32214C13.4898 3.6347 13.6654 4.05862 13.6654 4.50065V4.57565C13.6664 4.84381 13.7459 5.1058 13.894 5.32937C14.042 5.55295 14.2522 5.72835 14.4987 5.83398C14.75 5.94491 15.0289 5.978 15.2992 5.92899C15.5695 5.87997 15.819 5.7511 16.0154 5.55898L16.0654 5.50898C16.2202 5.35402 16.404 5.23109 16.6063 5.14722C16.8086 5.06334 17.0255 5.02017 17.2445 5.02017C17.4636 5.02017 17.6804 5.06334 17.8828 5.14722C18.0851 5.23109 18.2689 5.35402 18.4237 5.50898C18.5787 5.66377 18.7016 5.84759 18.7855 6.04992C18.8693 6.25225 18.9125 6.46913 18.9125 6.68815C18.9125 6.90718 18.8693 7.12405 18.7855 7.32639C18.7016 7.52872 18.5787 7.71253 18.4237 7.86732L18.3737 7.91732C18.1816 8.11372 18.0527 8.36316 18.0037 8.63349C17.9547 8.90382 17.9878 9.18264 18.0987 9.43398V9.50065C18.2043 9.74713 18.3797 9.95733 18.6033 10.1054C18.8269 10.2535 19.0889 10.3329 19.357 10.334H19.4987C19.9407 10.334 20.3646 10.5096 20.6772 10.8221C20.9898 11.1347 21.1654 11.5586 21.1654 12.0007C21.1654 12.4427 20.9898 12.8666 20.6772 13.1792C20.3646 13.4917 19.9407 13.6673 19.4987 13.6673H19.4237C19.1555 13.6684 18.8936 13.7478 18.67 13.8959C18.4464 14.044 18.271 14.2542 18.1654 14.5007V14.5007Z" stroke="#13131C" stroke-width="1.6" stroke-linecap="round" stroke-linejoin="round"/>
</g>
<defs>
<clipPath id="clip0_16311_9199">
<rect width="20" height="20" fill="white" transform="translate(2 2)"/>
</clipPath>
</defs>
</svg>
