<svg width="24" height="24" viewBox="0 0 24 24" fill="none" xmlns="http://www.w3.org/2000/svg">
<path d="M11.6787 8.03613V6.16113C11.6787 5.63613 11.86 5.19238 12.2225 4.82988C12.585 4.46738 13.0287 4.28613 13.5537 4.28613H15.4287V6.16113C15.4287 6.68613 15.2475 7.12988 14.885 7.49238C14.5225 7.85488 14.0787 8.03613 13.5537 8.03613H11.6787ZM7.55371 12.5361C6.82871 12.5361 6.20996 12.2799 5.69746 11.7674C5.18496 11.2549 4.92871 10.6361 4.92871 9.91113V7.28613H7.55371C8.27871 7.28613 8.89746 7.54238 9.40996 8.05488C9.92246 8.56738 10.1787 9.18613 10.1787 9.91113V12.5361H7.55371ZM11.1537 19.0611C11.0162 18.9236 10.9475 18.7486 10.9475 18.5361C10.9475 18.3236 11.0162 18.1486 11.1537 18.0111L11.7725 17.3924C11.51 17.0299 11.3037 16.6269 11.1537 16.1834C11.0037 15.7394 10.9287 15.2736 10.9287 14.7861C10.9287 13.5361 11.3662 12.4706 12.2412 11.5896C13.1162 10.7081 14.1787 10.2736 15.4287 10.2861H19.91V14.7861C19.935 16.0361 19.507 17.0986 18.626 17.9736C17.7445 18.8486 16.6787 19.2861 15.4287 19.2861C14.9412 19.2861 14.4755 19.2111 14.0315 19.0611C13.588 18.9111 13.185 18.7049 12.8225 18.4424L12.2037 19.0611C12.0662 19.1986 11.8912 19.2674 11.6787 19.2674C11.4662 19.2674 11.2912 19.1986 11.1537 19.0611ZM15.4287 17.7861C16.2662 17.7861 16.9787 17.4924 17.5662 16.9049C18.1537 16.3174 18.435 15.6111 18.41 14.7861V11.7861H15.4287C14.6037 11.7736 13.8975 12.0611 13.31 12.6486C12.7225 13.2361 12.4287 13.9486 12.4287 14.7861C12.4287 15.0736 12.463 15.3454 12.5315 15.6014C12.6005 15.8579 12.7037 16.0986 12.8412 16.3236L14.9037 14.2611C15.0412 14.1236 15.2162 14.0549 15.4287 14.0549C15.6412 14.0549 15.8162 14.1236 15.9537 14.2611C16.0912 14.3986 16.16 14.5736 16.16 14.7861C16.16 14.9986 16.0912 15.1736 15.9537 15.3111L13.8912 17.3736C14.1162 17.5111 14.357 17.6144 14.6135 17.6834C14.8695 17.7519 15.1412 17.7861 15.4287 17.7861Z" fill="#00AA64"/>
</svg>
