<?xml version="1.0" encoding="UTF-8"?>
<svg id="Layer_1" xmlns="http://www.w3.org/2000/svg" version="1.1" viewBox="0 0 24 24">
  <!-- Generator: Adobe Illustrator 29.7.1, SVG Export Plug-In . SVG Version: 2.1.1 Build 8)  -->
  <defs>
    <style>
      .st0 {
        fill: #2ea8e5;
      }
    </style>
  </defs>
  <path class="st0" d="M8.04,18.91c-1.04,0-1.92-.37-2.65-1.1-.73-.73-1.1-1.62-1.1-2.65,0-.6.13-1.16.39-1.68.26-.52.63-.96,1.11-1.32v-4.5c0-.62.22-1.16.66-1.59s.97-.66,1.59-.66,1.16.22,1.59.66c.44.44.66.97.66,1.59v4.5c.47.36.84.8,1.11,1.32.26.52.39,1.08.39,1.68,0,1.04-.37,1.92-1.1,2.65-.73.73-1.62,1.1-2.65,1.1ZM8.04,17.41c.6,0,1.12-.23,1.57-.68.45-.45.67-.97.67-1.57,0-.36-.08-.7-.23-1.01-.16-.31-.38-.57-.67-.79l-.6-.45v-5.25c0-.21-.07-.39-.22-.53-.14-.14-.32-.22-.53-.22s-.39.07-.53.22-.22.32-.22.53v5.25l-.6.45c-.29.21-.51.47-.67.79-.16.31-.23.65-.23,1.01,0,.6.22,1.12.68,1.57.45.45.97.68,1.57.68Z"/>
  <path class="st0" d="M14.04,12.54v-1.56l-1.22,1.2-.52-.52,1.74-1.74v-.75h-.75l-1.74,1.74-.52-.53,1.2-1.22h-1.56v-.75h1.56l-1.2-1.22.52-.53,1.74,1.74h.75v-.75l-1.74-1.74.52-.53,1.22,1.2v-1.56h.75v1.56l1.22-1.2.52.53-1.74,1.74v.75h.75l1.74-1.74.52.53-1.2,1.22h1.56v.75h-1.56l1.2,1.22-.52.53-1.74-1.74h-.75v.75l1.74,1.74-.52.52-1.22-1.2v1.56h-.75Z"/>
</svg>