<svg width="24" height="25" viewBox="0 0 24 25" fill="none" xmlns="http://www.w3.org/2000/svg">
<path d="M4 19C3.45 19 2.97917 18.8042 2.5875 18.4125C2.19583 18.0208 2 17.55 2 17L2 7.5C2 6.95 2.19583 6.47917 2.5875 6.0875C2.97917 5.69583 3.45 5.5 4 5.5H20C20.55 5.5 21.0208 5.69583 21.4125 6.0875C21.8042 6.47917 22 6.95 22 7.5V17C22 17.55 21.8042 18.0208 21.4125 18.4125C21.0208 18.8042 20.55 19 20 19H4ZM3.5 17.5H5.5V15.5H3.5V17.5ZM18.5 17.5H20.5V15.5H18.5V17.5ZM3.5 13H5.5V11H3.5V13ZM18.5 13H20.5V11H18.5V13ZM3.5 9H5.5V7H3.5V9ZM18.5 9H20.5V7H18.5V9ZM6.5 17.5H17.5V7H6.5V17.5Z" fill="#13131C"/>
<path d="M14.6915 11.1588C15.3038 11.5525 15.3038 12.4475 14.6915 12.8412L10.5408 15.5095C9.87525 15.9373 9 15.4595 9 14.6683L9 9.33167C9 8.5405 9.87525 8.06266 10.5408 8.49049L14.6915 11.1588Z" fill="#13131C"/>
</svg>
