<?xml version="1.0" encoding="UTF-8"?>
<svg id="Layer_1" xmlns="http://www.w3.org/2000/svg" version="1.1" viewBox="0 0 50 50">
  <!-- Generator: Adobe Illustrator 29.7.1, SVG Export Plug-In . SVG Version: 2.1.1 Build 8)  -->
  <defs>
    <style>
      .st0 {
        fill: #0095e0;
      }

      .st1 {
        fill: #fff;
      }
    </style>
  </defs>
  <path class="st0" d="M48,25c0,12.7-10.3,23-23,23S2,37.7,2,25,12.3,2,25,2s23,10.3,23,23Z"/>
  <path class="st1" d="M18.23,37.14c-1.16-.76-1.65-2.18-1.28-3.52.37-1.38,1.11-2.65,2.16-3.67,1.56-1.53,3.68-2.39,5.89-2.39s4.33.86,5.89,2.39c1.05,1.03,1.79,2.29,2.16,3.67.36,1.34-.13,2.76-1.28,3.52-1.28.84-3.43,1.75-6.77,1.75s-5.49-.91-6.77-1.75ZM25,26.53c-3.45,0-6.25-2.74-6.25-6.12s2.8-6.12,6.25-6.12,6.25,2.74,6.25,6.12-2.8,6.12-6.25,6.12Z"/>
</svg>