<?xml version="1.0" encoding="UTF-8"?>
<svg id="Layer_1" xmlns="http://www.w3.org/2000/svg" version="1.1" viewBox="0 0 50 42">
  <!-- Generator: Adobe Illustrator 29.7.1, SVG Export Plug-In . SVG Version: 2.1.1 Build 8)  -->
  <defs>
    <style>
      .st0 {
        fill: #0095e0;
      }

      .st1 {
        fill: #fff;
      }
    </style>
  </defs>
  <rect class="st0" x="3" y="3" width="44" height="36" rx="7" ry="7"/>
  <path class="st1" d="M34,13.25c-.41,0-.75.34-.75.75v12.54l-4.5,2.25v-5.79c0-.41-.34-.75-.75-.75s-.75.34-.75.75v5.79l-4.5-2.25v-12.54s0-.01,0-.02c0-.05-.02-.1-.03-.15-.01-.05-.02-.1-.04-.14,0,0,0-.02,0-.02-.02-.03-.05-.06-.07-.09-.03-.04-.06-.09-.1-.12-.04-.03-.08-.05-.12-.08-.04-.03-.08-.05-.13-.07-.05-.02-.1-.02-.15-.03-.04,0-.07-.02-.11-.02,0,0-.02,0-.02,0-.05,0-.09.02-.14.03-.05.01-.1.02-.15.04,0,0-.02,0-.02,0l-6,3c-.25.13-.41.39-.41.67v13c0,.26.13.5.36.64.12.08.26.11.39.11.11,0,.23-.03.34-.08l5.66-2.83,5.67,2.83s.01,0,.02,0c.1.05.2.07.31.07s.22-.03.31-.07c0,0,.01,0,.02,0l6-3c.25-.13.42-.39.42-.67v-13c0-.41-.34-.75-.75-.75ZM16.75,17.46l4.5-2.25v11.32l-4.5,2.25v-11.32Z"/>
  <path class="st1" d="M32,15.1c0-2.49-1.9-4.1-4-4.1s-4,1.61-4,4.1c0,1.66,1.33,3.63,4,5.9,2.67-2.27,4-4.24,4-5.9ZM28,16c-.59,0-1.07-.48-1.07-1.07s.48-1.07,1.07-1.07,1.07.48,1.07,1.07-.48,1.07-1.07,1.07Z"/>
</svg>