<svg width="30" height="30" viewBox="0 0 30 30" fill="none" xmlns="http://www.w3.org/2000/svg">
<rect x="0.599609" y="0.600098" width="28.8" height="28.8" rx="14.4" fill="white"/>
<rect x="0.599609" y="0.600098" width="28.8" height="28.8" rx="14.4" fill="#0095E0"/>
<path d="M19.0123 13.6L22.1998 10.4125V19.1875L19.0123 16V18.8125C19.0123 19.0375 18.9248 19.225 18.7498 19.375C18.5998 19.525 18.4123 19.6 18.1873 19.6H8.5873C8.3623 19.6 8.1748 19.525 8.0248 19.375C7.8748 19.225 7.7998 19.0375 7.7998 18.8125V10.7875C7.7998 10.5625 7.8748 10.375 8.0248 10.225C8.1748 10.075 8.3623 10 8.5873 10H18.1873C18.4123 10 18.5998 10.075 18.7498 10.225C18.9248 10.375 19.0123 10.5625 19.0123 10.7875V13.6Z" fill="white"/>
</svg>
