<?xml version="1.0" encoding="UTF-8"?>
<svg id="Layer_1" xmlns="http://www.w3.org/2000/svg" version="1.1" viewBox="0 0 30 30">
  <!-- Generator: Adobe Illustrator 29.7.1, SVG Export Plug-In . SVG Version: 2.1.1 Build 8)  -->
  <defs>
    <style>
      .st0 {
        fill: none;
      }

      .st1 {
        fill: #0095e0;
      }

      .st2 {
        fill: #fff;
      }
    </style>
  </defs>
  <path class="st2" d="M15,.6h0c7.95,0,14.4,6.45,14.4,14.4h0c0,7.95-6.45,14.4-14.4,14.4h0C7.05,29.4.6,22.95.6,15h0C.6,7.05,7.05.6,15,.6Z"/>
  <path class="st1" d="M15,.6h0c7.95,0,14.4,6.45,14.4,14.4h0c0,7.95-6.45,14.4-14.4,14.4h0C7.05,29.4.6,22.95.6,15h0C.6,7.05,7.05.6,15,.6Z"/>
  <rect class="st0" x="5.4" y="5.4" width="19.2" height="19.2"/>
  <path class="st2" d="M21.64,10.76c.2.02.4.1.56.22.16.12.29.29.37.48l.74,2.61h.82c.12,0,.23.06.32.14.08.09.13.2.14.32v.24c0,.12-.06.24-.14.33-.08.09-.2.14-.32.15h-.12l.35.36v5.55c.01.2-.06.41-.19.56-.13.16-.32.25-.52.27h-.59c-.34,0-.69-.48-.69-.83v-1.33h-9.11v1.33c.01.2-.06.41-.19.56-.13.16-.32.25-.52.27h-.59c-.34,0-.69-.48-.69-.83v-5.55l.47-.48h-.12c-.12,0-.24-.06-.32-.15-.09-.09-.14-.2-.15-.33v-.24c0-.12.06-.24.15-.32.09-.09.2-.14.32-.14h.81l.82-2.49c.08-.21.22-.39.41-.52.19-.13.41-.19.63-.18h7.31ZM13.86,15.84c-.14,0-.27.03-.4.08-.13.05-.24.13-.34.23-.1.1-.17.22-.22.35-.05.13-.08.27-.08.41,0,.14.03.28.08.41.05.13.13.25.23.34.1.1.21.18.34.23.13.05.26.08.4.08.14,0,.27-.02.4-.08.13-.05.24-.13.34-.23.1-.1.18-.22.23-.35.05-.13.08-.27.08-.41,0-.28-.11-.56-.31-.76-.2-.2-.47-.31-.75-.31ZM22,15.84c-.14,0-.27.03-.4.08s-.24.13-.34.23c-.1.1-.17.22-.23.35-.05.13-.08.27-.08.41,0,.14.03.28.08.41.05.13.13.25.23.34s.21.18.34.23c.13.05.26.08.4.08.14,0,.27-.03.4-.08.13-.05.24-.13.34-.23.1-.1.17-.22.23-.34.05-.13.08-.27.08-.41,0-.14-.02-.28-.08-.41-.05-.13-.13-.25-.22-.35-.1-.1-.21-.18-.34-.23-.13-.05-.26-.08-.4-.08ZM12.22,5.63c.19-.37.75-.27.81.14l.38,2.78,2.57-1c.39-.15.74.28.52.63l-1.24,1.99h-.96c-.35,0-.69.1-.98.29-.29.19-.52.47-.66.8l-.66,2.01h-.33c-.3,0-.58.13-.79.35s-.33.5-.34.81v.24c-.01.19.02.38.1.54v.61l-1.86,1.72c-.31.29-.8,0-.71-.41l.61-2.77-2.83.09c-.42.01-.61-.51-.28-.77l2.25-1.76-2.25-1.83c-.32-.26-.12-.78.29-.76l2.83.12-.58-2.81c-.08-.41.41-.69.71-.4l2.08,1.92,1.33-2.52ZM14.33,11.82l-1.04,3.08h9.41l-1.05-3.08h-7.31Z"/>
</svg>