<svg width="30" height="30" viewBox="0 0 30 30" fill="none" xmlns="http://www.w3.org/2000/svg">
<rect x="0.599609" y="0.600098" width="28.8" height="28.8" rx="14.4" fill="white"/>
<rect x="0.599609" y="0.600098" width="28.8" height="28.8" rx="14.4" fill="#0095E0"/>
<path d="M15 7.65625L21 10.3438V14.3438C21 16.1979 20.4271 17.8958 19.2812 19.4375C18.1354 20.9583 16.7083 21.9271 15 22.3438C13.2917 21.9271 11.8646 20.9583 10.7188 19.4375C9.57292 17.8958 9 16.1979 9 14.3438V10.3438L15 7.65625ZM15 15V20.9688C16.2292 20.5729 17.2708 19.8333 18.125 18.75C18.9792 17.6458 19.4896 16.3958 19.6562 15H15ZM15 15V9.125L10.3438 11.1875V15H15Z" fill="white"/>
</svg>
