<?xml version="1.0" encoding="UTF-8"?>
<svg id="Layer_1" xmlns="http://www.w3.org/2000/svg" version="1.1" viewBox="0 0 32 32">
  <!-- Generator: Adobe Illustrator 29.7.1, SVG Export Plug-In . SVG Version: 2.1.1 Build 8)  -->
  <defs>
    <style>
      .st0 {
        fill: #0095e0;
      }
    </style>
  </defs>
  <path class="st0" d="M20,28h-8c-4.41,0-8-3.59-8-8v-8c0-4.41,3.59-8,8-8h8c4.41,0,8,3.59,8,8v8c0,4.41-3.59,8-8,8ZM12,5c-3.86,0-7,3.14-7,7v8c0,3.86,3.14,7,7,7h8c3.86,0,7-3.14,7-7v-8c0-3.86-3.14-7-7-7h-8Z"/>
  <path class="st0" d="M20.5,16h0c0,.33-.27.6-.6.6h-7.8c-.33,0-.6-.27-.6-.6h0c0-.33.27-.6.6-.6h7.8c.33,0,.6.27.6.6Z"/>
</svg>