<svg width="26" height="26" viewBox="0 0 26 26" fill="none" xmlns="http://www.w3.org/2000/svg">
<path d="M17.3 5.81818H18.2C19.19 5.81818 20 6.63636 20 7.63636V12H18.2V10.3636H3.8V22.1818H11V24H3.8C2.81 24 2 23.1818 2 22.1818V7.63636C2 6.63636 2.81 5.81818 3.8 5.81818H4.7V4H6.5V5.81818H15.5V4H17.3V5.81818Z" fill="#13131C"/>
<path fill-rule="evenodd" clip-rule="evenodd" d="M10.2766 15.805C10.6157 14.7696 11.2525 13.8576 12.107 13.1837C12.9615 12.5099 13.9956 12.1041 15.0794 12.0175C16.1632 11.9309 17.2484 12.1672 18.1986 12.6968C19.1489 13.2264 19.9218 14.0257 20.4203 14.9942C20.897 15.8743 21.1192 16.8702 21.0619 17.87C21.0046 18.8697 20.6701 19.8336 20.0961 20.6532L22.685 23.2533C22.8745 23.4339 22.987 23.681 22.9989 23.9429C23.0109 24.2047 22.9214 24.4611 22.7491 24.6583C22.656 24.7606 22.5436 24.8434 22.4184 24.9019C22.2932 24.9604 22.1576 24.9935 22.0196 24.9991C21.8816 25.0048 21.7438 24.983 21.6142 24.9349C21.4846 24.8869 21.3658 24.8136 21.2647 24.7193L18.6758 22.1174C17.7281 22.7834 16.5939 23.1303 15.4367 23.1079C14.2796 23.0855 13.1595 22.6951 12.2381 21.993C11.3041 21.2989 10.6119 20.3275 10.2598 19.2167C9.90774 18.106 9.91361 16.9123 10.2766 15.805ZM18.7873 15.8414C18.4433 15.1738 17.9042 14.6274 17.2419 14.2753C16.5797 13.9232 15.826 13.7822 15.0816 13.8712C14.3373 13.9602 13.6378 14.275 13.0768 14.7734C12.5158 15.2717 12.12 15.93 11.9425 16.66C11.7649 17.39 11.814 18.157 12.0831 18.8583C12.3523 19.5596 12.8287 20.1617 13.4486 20.5842C14.0686 21.0067 14.8024 21.2293 15.552 21.2222C16.3016 21.2152 17.0312 20.9789 17.6431 20.5448L18.1497 20.18L18.5128 19.668C18.9038 19.1156 19.1359 18.4662 19.1835 17.7905C19.2312 17.1149 19.0926 16.4392 18.783 15.8372L18.7873 15.8414Z" fill="#13131C"/>
<circle cx="24" cy="2" r="2" fill="#0095E0"/>
</svg>
