<svg width="24" height="24" viewBox="0 0 24 24" fill="none" xmlns="http://www.w3.org/2000/svg">
<path d="M18.5039 16.0146L15.6318 14.8662L15.4414 15.1855C14.6975 16.4254 12.9971 17.0452 11.5889 16.1357C10.0994 15.1737 8.83016 13.9045 7.86816 12.415C6.95871 11.0068 7.5785 9.30642 8.81836 8.5625L9.13672 8.37109L7.98828 5.5H5.00391C4.73955 5.5 4.51755 5.71652 4.50586 5.97852C4.98097 13.2357 10.7674 19.0214 18.0244 19.4971C18.2868 19.4859 18.5039 19.2647 18.5039 19V16.0146ZM20.0039 19C20.0039 20.1 19.1039 21 18.0039 21C9.93391 20.51 3.49391 14.07 3.00391 6C3.00391 4.9 3.90391 4 5.00391 4H8.07324L8.17773 4.00391C8.69727 4.04344 9.15384 4.37491 9.34961 4.86426L10.5693 7.91309C10.8197 8.53955 10.5785 9.25536 10 9.60254L9.58984 9.84863C8.97637 10.2167 8.74003 10.9995 9.12793 11.6006C9.97458 12.9116 11.0923 14.0293 12.4033 14.876C13.0044 15.2639 13.7872 15.0275 14.1553 14.4141L14.4014 14.0039C14.7485 13.4254 15.4644 13.1842 16.0908 13.4346L19.1396 14.6543C19.6616 14.8631 20.0038 15.3686 20.0039 15.9307V19Z" fill="#13131C"/>
<path d="M15.9688 9C15.9687 8.46954 15.5305 8.03125 15 8.03125C14.4305 8.03125 13.9688 7.56954 13.9688 7C13.9688 6.43046 14.4305 5.96875 15 5.96875C16.6695 5.96875 18.0312 7.33046 18.0312 9C18.0312 9.56954 17.5695 10.0312 17 10.0312C16.4305 10.0312 15.9688 9.56954 15.9688 9Z" fill="#0095E0"/>
<path d="M19.9688 9C19.9687 6.25954 17.7405 4.03125 15 4.03125C14.4305 4.03125 13.9688 3.56954 13.9688 3C13.9688 2.43046 14.4305 1.96875 15 1.96875C18.8795 1.96875 22.0312 5.12046 22.0312 9C22.0312 9.56954 21.5695 10.0312 21 10.0312C20.4305 10.0312 19.9688 9.56954 19.9688 9Z" fill="#0095E0"/>
</svg>
