<?xml version="1.0" encoding="UTF-8"?>
<svg id="Layer_1" xmlns="http://www.w3.org/2000/svg" xmlns:xlink="http://www.w3.org/1999/xlink"  viewBox="0 0 25 24">
  
    <g>
      <path d="M14.26,16.26h3.53v3.53l-3.53-3.53Z" fill="#ff6060ff"/>
      <path d="M2.5,9.79c0-2.92,2.37-5.29,5.29-5.29h9.41c2.92,0,5.29,2.37,5.29,5.29s-2.37,5.29-5.29,5.29H7.79c-2.92,0-5.29-2.37-5.29-5.29Z" fill="#88c309ff"/>
      <path d="M7.79,4.5c-2.92,0-5.29,2.37-5.29,5.29,0,2.92,2.37,5.29,5.29,5.29h9.41c2.92,0,5.29-2.37,5.29-5.29,0-2.83-2.22-5.15-5.02-5.29h-.27s-9.41,0-9.41,0ZM17.21,3c3.75,0,6.79,3.04,6.79,6.79,0,3.02-1.98,5.59-4.71,6.47,0,0,0,0,0,0v3.53c0,.61-.37,1.15-.93,1.39-.56.23-1.21.1-1.63-.33l-3.53-3.53c-.21-.21-.34-.46-.4-.74h-5c-3.75,0-6.79-3.04-6.79-6.79,0-3.75,3.04-6.79,6.79-6.79h9.41ZM14.26,16.26l3.53,3.53v-3.53h-3.53Z" fill="#01f9f5ff"/>
    </g>
  
</svg>