<svg width="32" height="32" viewBox="0 0 32 32" fill="none" xmlns="http://www.w3.org/2000/svg">
<path d="M25.4336 16.1758C25.7461 16.3242 26.0039 16.5312 26.207 16.7969C26.4102 17.0625 26.5117 17.3711 26.5117 17.7227C26.5117 18.3008 26.3281 18.7656 25.9609 19.1172C25.5938 19.4688 25.168 19.6445 24.6836 19.6445C24.4023 19.6445 24.1016 19.5781 23.7812 19.4453C23.4531 19.3203 23.1445 19.1953 22.8555 19.0703L15.0391 15.7188H16.2227L8.39453 19.0703C8.11328 19.1953 7.80859 19.3203 7.48047 19.4453C7.15234 19.5781 6.85156 19.6445 6.57812 19.6445C6.09375 19.6445 5.66797 19.4688 5.30078 19.1172C4.93359 18.7656 4.75 18.3008 4.75 17.7227C4.75 17.3711 4.85156 17.0625 5.05469 16.7969C5.25781 16.5312 5.51562 16.3242 5.82812 16.1758L13.5859 12.8359C13.9688 12.6719 14.3164 12.5312 14.6289 12.4141C14.9414 12.3047 15.2734 12.25 15.625 12.25C15.9844 12.25 16.3203 12.3047 16.6328 12.4141C16.9453 12.5312 17.2891 12.6719 17.6641 12.8359L25.4336 16.1758Z" fill="#61007D"/>
<circle cx="30" cy="12" r="2" fill="#D81A26"/>
</svg>
