<svg id="Layer_1" xmlns="http://www.w3.org/2000/svg"  viewBox="0 0 84 60">
  
  <path d="M60,39h12c4.97,0,9,4.03,9,9h0c0,4.97-4.03,9-9,9h-12c-4.97,0-9-4.03-9-9h0c0-4.97,4.03-9,9-9Z" fill="#d81a26"/>
  <path d="M61.92,51.2h-.85l-3.22-4.93v4.93h-.85v-6.4h.85l3.23,4.95v-4.95h.84v6.4Z" fill="#ffffffff"/>
  <path d="M67.03,48.24h-2.77v2.27h3.22v.69h-4.07v-6.4h4.02v.69h-3.18v2.06h2.77v.69Z" fill="#ffffffff"/>
  <path d="M69.91,49.18l.12.84.18-.76,1.27-4.46h.71l1.23,4.46.18.77.14-.86.99-4.38h.85l-1.55,6.4h-.77l-1.32-4.66-.1-.49-.1.49-1.37,4.66h-.77l-1.55-6.4h.84l1.01,4.38Z" fill="#ffffffff"/>
  <path d="M35,2h15c1.1,0,2,.9,2,2s-.9,2-2,2h-15c-1.1,0-2-.9-2-2s.9-2,2-2Z" fill="#13131c"/>
  <path d="M45.97,27h-2.13v-1.36h2.13c.62,0,1.13-.13,1.54-.4.42-.27.73-.65.94-1.16.21-.5.32-1.1.32-1.79v-.54c0-.54-.06-1.01-.18-1.43-.12-.41-.3-.76-.53-1.05-.23-.28-.52-.5-.86-.64-.34-.15-.73-.22-1.17-.22h-2.23v-1.37h2.23c.66,0,1.26.11,1.81.33.55.22,1.02.54,1.42.95.4.41.71.91.92,1.49.21.58.32,1.23.32,1.94v.53c0,.72-.11,1.36-.32,1.94-.21.58-.52,1.08-.92,1.49-.4.41-.88.73-1.44.95-.55.22-1.17.33-1.85.33ZM44.79,17.05v9.95h-1.72v-9.95h1.72ZM52.92,17.05h1.53l2.88,7.68,2.87-7.68h1.53l-3.8,9.95h-1.22l-3.79-9.95ZM52.22,17.05h1.46l.25,6.64v3.31h-1.71v-9.95ZM60.97,17.05h1.46v9.95h-1.72v-3.31l.25-6.64ZM69.71,24.44c0-.21-.03-.39-.1-.55-.06-.16-.17-.31-.32-.44-.15-.13-.37-.26-.66-.38-.28-.13-.63-.26-1.07-.39-.47-.15-.91-.31-1.31-.49-.4-.18-.74-.39-1.04-.63-.3-.24-.53-.52-.69-.83-.16-.31-.25-.68-.25-1.09s.08-.77.25-1.11c.17-.33.42-.62.73-.86.32-.25.69-.44,1.13-.57.43-.14.91-.2,1.44-.2.74,0,1.37.14,1.91.41.54.27.95.64,1.24,1.1.29.46.44.97.44,1.52h-1.7c0-.33-.07-.62-.21-.87-.14-.26-.35-.46-.63-.6-.28-.15-.63-.22-1.06-.22-.41,0-.74.06-1.01.18-.27.12-.47.29-.6.5-.13.21-.2.45-.2.71,0,.19.04.36.13.51.09.15.22.29.4.42.18.13.4.25.67.36.27.11.59.22.95.33.55.16,1.03.35,1.44.55.41.2.75.42,1.03.67.27.25.48.54.62.85.14.31.21.67.21,1.07s-.08.8-.25,1.13c-.17.33-.41.62-.72.85-.31.23-.68.41-1.12.54-.43.12-.92.18-1.45.18-.48,0-.95-.06-1.42-.19-.46-.13-.88-.32-1.26-.58-.38-.26-.68-.59-.9-.98-.22-.4-.33-.86-.33-1.39h1.72c0,.32.05.6.16.83.11.23.27.41.47.56.2.14.43.25.7.31.27.07.56.1.86.1.4,0,.74-.06,1-.17.27-.11.48-.27.62-.48.14-.21.21-.44.21-.71Z" fill="#13131c"/>
  <path d="M77,8H9c-2.21,0-4,1.79-4,4v20c0,.37.07.72.16,1.06-.35.6-.67,1.23-.93,1.88-1.22,2.94-1.54,6.18-.92,9.3.62,3.12,2.15,5.99,4.4,8.24,2.25,2.25,5.12,3.78,8.24,4.4,3.12.62,6.36.3,9.3-.92,2.94-1.22,5.45-3.28,7.22-5.93,1.77-2.65,2.71-5.76,2.71-8.94,0-1.74-.29-3.46-.84-5.11,0,0,0,0,0,.01h42.65c2.21,0,4-1.79,4-4V12c0-2.21-1.79-4-4-4ZM76.58,11c-1.21,1.24-2.89,2-4.7,2H14.12c-1.8,0-3.48-.76-4.69-2h67.15ZM7.2,30.27s0,0,0,0c0,0,0,0,0,0ZM10.02,45.94l-4.36-4.34c-.19-.19-.06-.51.21-.51h3.08c0-2.69,1.07-5.28,2.97-7.18,1.9-1.9,4.49-2.97,7.18-2.97,1.54-.01,3.06.34,4.44,1.02.51.25.59.93.18,1.34l-.74.74c-.19.19-.48.23-.73.11-.98-.47-2.06-.71-3.15-.7-2.02,0-3.96.82-5.38,2.25-1.43,1.43-2.23,3.37-2.23,5.39h3.08c.27,0,.4.32.21.51l-4.34,4.34c-.12.12-.31.12-.42,0ZM32.33,41.09h-3.08c-.03,2.67-1.12,5.22-3.02,7.1-1.9,1.88-4.46,2.93-7.14,2.93-1.48,0-2.93-.3-4.27-.9-.54-.24-.62-.95-.2-1.36l.6-.58c.19-.18.47-.22.7-.11.99.46,2.07.69,3.16.69,1.01,0,2.01-.2,2.95-.59.93-.39,1.78-.97,2.49-1.69.71-.72,1.27-1.58,1.64-2.52.37-.94.55-1.95.53-2.96h-3.08c-.27,0-.4-.32-.21-.51l4.37-4.37c.12-.12.31-.12.42,0l4.34,4.37c.19.19.05.51-.21.51ZM33,33c-.41-.7-.85-1.37-1.36-2h40.24c1.8,0,3.48.76,4.7,2h-43.58ZM78,31.6c-1.58-1.62-3.77-2.6-6.12-2.6H29.71c-1.32-1.16-2.82-2.11-4.45-2.78-1.95-.81-4.05-1.22-6.16-1.22-3.18,0-6.29.94-8.94,2.71-.78.52-1.5,1.11-2.17,1.75,0,0,.01-.01.02-.02V12.4c1.58,1.62,3.77,2.6,6.12,2.6h57.76c2.35,0,4.54-.98,6.12-2.6v19.21Z" fill="#13131c"/>
</svg>