
<svg id="Layer_1" xmlns="http://www.w3.org/2000/svg" version="1.1" viewBox="0 0 84 60">
  
  <path d="M58,40h12c4.97,0,9,4.03,9,9h0c0,4.97-4.03,9-9,9h-12c-4.97,0-9-4.03-9-9h0c0-4.97,4.03-9,9-9Z" fill=" #d81a26"/>
  <path d="M49,49c0-4.97,3.93-9,8.78-9h12.44c4.85,0,8.78,4.03,8.78,9h0c0,4.97-3.93,9-8.78,9h-12.44c-4.85,0-8.78-4.03-8.78-9h0Z" fill=" #d81a26"/>
  <path d="M59.92,52.2h-.85l-3.22-4.93v4.93h-.85v-6.4h.85l3.23,4.95v-4.95h.84v6.4Z" fill=" #fff"/>
  <path d="M65.03,49.24h-2.77v2.27h3.22v.69h-4.07v-6.4h4.02v.69h-3.18v2.06h2.77v.69Z" fill=" #fff"/>
  <path d="M67.91,50.18l.12.84.18-.76,1.27-4.46h.71l1.23,4.46.18.77.14-.86.99-4.38h.85l-1.55,6.4h-.77l-1.32-4.66-.1-.49-.1.49-1.37,4.66h-.77l-1.55-6.4h.84l1.01,4.38Z" fill=" #fff"/>
  <path d="M24.18,2h10.29c1.42,0,2.57,1.15,2.57,2.57s-1.15,2.57-2.57,2.57h-10.29c-1.42,0-2.57-1.15-2.57-2.57s1.15-2.57,2.57-2.57Z" fill=" #13131c"/>
  <path d="M63.71,9.29H27.71c-5.36,0-9.71,4.36-9.71,9.71v7.14c-2.44.32-4.79,1.19-6.85,2.57-2.65,1.77-4.71,4.28-5.93,7.22-1.22,2.94-1.54,6.18-.92,9.3.62,3.12,2.15,5.99,4.4,8.24,2.25,2.25,5.12,3.78,8.24,4.4,3.12.62,6.36.3,9.3-.92,2.94-1.22,5.45-3.28,7.22-5.93,1.77-2.65,2.71-5.76,2.71-8.94,0-1.04-.1-2.08-.3-3.09h27.82c5.36,0,9.71-4.36,9.71-9.71v-10.29c0-5.36-4.36-9.71-9.71-9.71ZM11.02,46.94l-4.36-4.34c-.19-.19-.06-.51.21-.51h3.08c0-2.69,1.07-5.28,2.97-7.18,1.9-1.9,4.49-2.97,7.18-2.97,1.54-.01,3.06.34,4.44,1.02.51.25.59.93.18,1.34l-.74.74c-.19.19-.48.23-.73.11-.98-.47-2.06-.71-3.15-.7-2.02,0-3.96.82-5.38,2.25-1.43,1.43-2.23,3.37-2.23,5.39h3.08c.27,0,.4.32.21.51l-4.34,4.34c-.12.12-.31.12-.42,0ZM33.33,42.09h-3.08c-.03,2.67-1.12,5.22-3.02,7.1-1.9,1.88-4.46,2.93-7.14,2.93-1.48,0-2.93-.3-4.27-.9-.54-.24-.62-.95-.2-1.36l.6-.58c.19-.18.47-.22.7-.11.99.46,2.07.69,3.16.69,1.01,0,2.01-.2,2.95-.59.93-.39,1.78-.97,2.49-1.69.71-.72,1.27-1.58,1.64-2.52.37-.94.55-1.95.53-2.96h-3.08c-.27,0-.4-.32-.21-.51l4.37-4.37c.12-.12.31-.12.42,0l4.34,4.37c.19.19.05.51-.21.51ZM69.43,29.29c0,3.15-2.56,5.71-5.71,5.71h-29.18c-.78-1.59-1.8-3.04-3.05-4.3-1.5-1.5-3.27-2.68-5.23-3.49-1.36-.56-2.8-.92-4.26-1.09v-7.12c0-3.15,2.56-5.71,5.71-5.71h36c3.15,0,5.71,2.56,5.71,5.71v10.29Z" fill=" #13131c"/>
  <path d="M53.56,31.03c-3.87,0-7.01-3.15-7.01-7.01s3.15-7.01,7.01-7.01,7.01,3.15,7.01,7.01-3.15,7.01-7.01,7.01ZM53.56,21c-1.66,0-3.01,1.35-3.01,3.01s1.35,3.01,3.01,3.01,3.01-1.35,3.01-3.01-1.35-3.01-3.01-3.01Z" fill=" #13131c"/>
</svg>