<?xml version="1.0" encoding="UTF-8"?>
<svg id="Layer_1" xmlns="http://www.w3.org/2000/svg" version="1.1" viewBox="0 0 110 110">
  <!-- Generator: Adobe Illustrator 29.7.1, SVG Export Plug-In . SVG Version: 2.1.1 Build 8)  -->
  <defs>
    <style>
      .st0 {
        fill: #0095e0;
        fill-rule: evenodd;
      }

      .st1 {
        fill: #fff;
      }

      .st2 {
        fill: #00aa64;
      }
    </style>
  </defs>
  <path class="st0" d="M75.07,62.1c-2.08.35-4.04,1.06-5.83,2.05-1.11-1.13-2.29-2.33-3.35-3.41-.92-.93-2.4-1.02-3.42-.19h0c-2,1.63-4.61,2.28-7.13,1.76-2.51-.51-4.68-2.13-5.91-4.41-.65-1.21-1.34-2.51-2.04-3.81-.75-1.4-2.16-2.3-3.74-2.39-1.56-.08-3.06.67-3.96,1.98-4.61,6.76-9.89,14.5-9.89,14.5-.87,1.27-2.6,1.59-3.86.71-1.25-.88-1.57-2.64-.7-3.91,0,0,5.28-7.75,9.89-14.5,1.99-2.92,5.33-4.58,8.82-4.4,3.49.19,6.63,2.21,8.31,5.32.7,1.3,1.39,2.59,2.04,3.8.45.83,1.23,1.41,2.14,1.6.9.18,1.85-.05,2.57-.64h.01c3.23-2.62,7.88-2.36,10.8.61,1.7,1.72,3.72,3.77,5.26,5.33Z"/>
  <path class="st0" d="M87.57,32.82v31.56c-1.69-1-3.56-1.73-5.54-2.15v-29.41c0-3.24-1.27-6.34-3.52-8.63-2.25-2.28-5.31-3.57-8.49-3.57h-36.96c-3.19,0-6.25,1.29-8.5,3.57-2.25,2.29-3.52,5.39-3.52,8.63v37.51c0,3.23,1.27,6.33,3.52,8.62,2.25,2.29,5.31,3.57,8.5,3.57h26.48c.17,1.98.64,3.87,1.37,5.63h-27.85c-4.66,0-9.13-1.88-12.42-5.22-3.29-3.34-5.14-7.88-5.14-12.6v-37.51c0-4.73,1.85-9.26,5.14-12.61,3.29-3.34,7.76-5.21,12.42-5.21h36.96c4.65,0,9.12,1.87,12.41,5.21,3.29,3.35,5.14,7.88,5.14,12.61Z"/>
  <path class="st0" d="M64.47,30.01c-4.59,0-8.32,3.78-8.32,8.44s3.73,8.44,8.32,8.44,8.32-3.78,8.32-8.44-3.73-8.44-8.32-8.44ZM64.47,35.63c1.53,0,2.77,1.26,2.77,2.81s-1.24,2.81-2.77,2.81-2.77-1.26-2.77-2.81,1.24-2.81,2.77-2.81Z"/>
  <path class="st2" d="M78.2,64.73c-8.74,0-15.85,7.23-15.85,16.11s7.11,16.11,15.85,16.11,15.85-7.23,15.85-16.11-7.11-16.11-15.85-16.11Z"/>
  <path class="st1" d="M76.35,88.32c-.56,0-1.08-.22-1.48-.62l-5.03-5.1c-.8-.82-.8-2.14,0-2.96.79-.8,2.17-.8,2.96,0l3.55,3.61,9.14-9.27c.4-.4.92-.62,1.48-.62h0c.56,0,1.08.22,1.47.62.8.82.81,2.14,0,2.96l-10.62,10.78c-.39.4-.92.62-1.48.62Z"/>
</svg>