
<svg id="Layer_1" xmlns="http://www.w3.org/2000/svg" version="1.1" viewBox="0 0 24 24">
  
  <path d="M15.52,16.23l-6.22,5.57c-.15.15-.33.22-.54.21-.21,0-.39-.09-.54-.24-.13-.13-.2-.3-.22-.5-.02-.2.03-.37.15-.52l4.85-6.75-8.1-.78c-.43-.03-.72-.26-.86-.67-.14-.42-.05-.77.29-1.05l3.41-3.06.13.13s.02.02.03.03c0,.01.02.02.03.03l.3.31s.02.02.03.03.03.02.04.03l.33.33s.02.02.03.03c.01.01.02.02.03.03l.24.25.03.03s.03.02.04.03l.3.3s.02.02.03.03.02.02.03.03l.24.24s.02.03.03.04.02.02.03.03l.34.33.03.03s.02.02.03.03l.3.31s2.69,2.69,4.04,4.04l.76.76.36.36Z" fill="#ed9600"/>
  <path d="M19.67,12.5l-3.4,3.05-.37-.36-4.43-4.43-.15-.16s-.02-.02-.03-.03c-.02-.01-.03-.02-.04-.03l-.18-.18-.3-.31-.03-.03s-.03-.02-.04-.03l-.63-.63s-.02-.03-.03-.04c0-.01-.03-.02-.04-.03l-1.36-1.36s-.02-.03-.03-.04c-.01,0-.02-.02-.03-.03l-.1-.09,6.22-5.57c.15-.15.33-.22.54-.22.21.01.39.09.54.24.13.14.2.3.22.5s-.03.38-.15.53l-4.85,6.75,8.1.77c.43.04.72.26.86.68.14.41.05.76-.29,1.05Z" fill="#ed9600"/>
  <path d="M19,22c-.26,0-.51-.1-.71-.29L2.29,5.71c-.39-.39-.39-1.02,0-1.41s1.02-.39,1.41,0l16,16c.39.39.39,1.02,0,1.41-.2.2-.45.29-.71.29Z" fill="#d81a26"/>
</svg>