<svg width="32" height="32" viewBox="0 0 32 32" fill="none" xmlns="http://www.w3.org/2000/svg">
<path d="M5.56641 15.8242C5.25391 15.6758 4.9961 15.4687 4.79297 15.2031C4.58984 14.9375 4.48828 14.6289 4.48828 14.2773C4.48828 13.6992 4.67188 13.2344 5.03906 12.8828C5.40625 12.5312 5.83203 12.3555 6.31641 12.3555C6.59766 12.3555 6.89844 12.4219 7.21875 12.5547C7.54688 12.6797 7.85547 12.8047 8.14453 12.9297L15.9609 16.2812L14.7773 16.2812L22.6055 12.9297C22.8867 12.8047 23.1914 12.6797 23.5195 12.5547C23.8477 12.4219 24.1484 12.3555 24.4219 12.3555C24.9063 12.3555 25.332 12.5312 25.6992 12.8828C26.0664 13.2344 26.25 13.6992 26.25 14.2773C26.25 14.6289 26.1484 14.9375 25.9453 15.2031C25.7422 15.4687 25.4844 15.6758 25.1719 15.8242L17.4141 19.1641C17.0313 19.3281 16.6836 19.4687 16.3711 19.5859C16.0586 19.6953 15.7266 19.75 15.375 19.75C15.0156 19.75 14.6797 19.6953 14.3672 19.5859C14.0547 19.4687 13.7109 19.3281 13.3359 19.1641L5.56641 15.8242Z" fill="#BEBEC1"/>
<circle cx="30" cy="12" r="2" fill="#D81A26"/>
</svg>
