<?xml version="1.0" encoding="UTF-8"?>
<svg id="Layer_1" xmlns="http://www.w3.org/2000/svg" version="1.1" viewBox="0 0 56 56">
  <!-- Generator: Adobe Illustrator 29.7.1, SVG Export Plug-In . SVG Version: 2.1.1 Build 8)  -->
  <defs>
    <style>
      .st0 {
        fill: #d81a26;
      }

      .st1 {
        fill: #fff;
      }

      .st2 {
        fill: #13131c;
      }
    </style>
  </defs>
  <g>
    <path class="st2" d="M45.23,47h-22.46c-.97,0-1.84-.35-2.58-1.03-.03-.03-.07-.06-.1-.09-.72-.76-1.09-1.64-1.09-2.61l.09-30.52c0-1.01.35-1.88,1.05-2.59.76-.77,1.64-1.16,2.63-1.16h12.56c1.55,0,3.06.63,4.15,1.74l7.85,7.98c1.08,1.1,1.67,2.54,1.67,4.08v20.45c0,.98-.37,1.87-1.09,2.62-.03.03-.06.06-.1.09-.75.68-1.62,1.03-2.58,1.03ZM22.97,43.03h22.07v-20.23c0-.49-.19-.95-.53-1.3l-7.85-7.98c-.35-.35-.83-.55-1.32-.55h-12.28l-.09,30.07Z"/>
    <rect class="st2" x="25" y="30" width="18" height="3.22"/>
    <polygon class="st2" points="42.66 22.65 36 22.65 36 16 42.66 22.65"/>
    <rect class="st2" x="25" y="34.78" width="18" height="3.22"/>
  </g>
  <g>
    <path class="st0" d="M14,25.68h16c4.42,0,8,3.58,8,8h0c0,4.42-3.58,8-8,8H14c-4.42,0-8-3.58-8-8h0c0-4.42,3.58-8,8-8Z"/>
    <path class="st1" d="M17.7,30.03v7.11h-1.46l-2.86-4.77v4.77h-1.46v-7.11h1.46l2.86,4.77v-4.77s1.46,0,1.46,0ZM23.75,35.99v1.14h-3.78v-1.14h3.78ZM20.44,30.03v7.11h-1.46v-7.11s1.46,0,1.46,0ZM23.25,32.92v1.11h-3.29v-1.11h3.29ZM23.74,30.03v1.15h-3.78v-1.15h3.78ZM26.32,36.01l1.42-5.98h.79l.18,1-1.51,6.11h-.85l-.03-1.13ZM25.59,30.03l1.17,5.98-.1,1.13h-.95l-1.58-7.11h1.46ZM29.95,35.98l1.16-5.96h1.45l-1.57,7.11h-.95l-.09-1.15ZM28.97,30.03l1.43,6.01-.04,1.1h-.85l-1.52-6.12.2-.99h.79-.01Z"/>
  </g>
</svg>