<?xml version="1.0" encoding="UTF-8"?>
<svg id="Layer_1" xmlns="http://www.w3.org/2000/svg" version="1.1" viewBox="0 0 56 56">
  <!-- Generator: Adobe Illustrator 29.7.1, SVG Export Plug-In . SVG Version: 2.1.1 Build 8)  -->
  <defs>
    <style>
      .st0 {
        fill: #13131c;
      }
    </style>
  </defs>
  <path class="st0" d="M39.23,47h-22.46c-.97,0-1.84-.35-2.58-1.03-.03-.03-.07-.06-.1-.09-.72-.76-1.09-1.64-1.09-2.61l.09-30.52c0-1.01.35-1.88,1.05-2.59.76-.77,1.64-1.16,2.63-1.16h12.56c1.55,0,3.06.63,4.15,1.74l7.85,7.98c1.08,1.1,1.67,2.54,1.67,4.08v20.45c0,.98-.37,1.87-1.09,2.62-.03.03-.06.06-.1.09-.75.68-1.62,1.03-2.58,1.03ZM16.97,43.03h22.07v-20.23c0-.49-.19-.95-.53-1.3l-7.85-7.98c-.35-.35-.83-.55-1.32-.55h-12.28l-.09,30.07Z"/>
  <rect class="st0" x="19" y="30" width="18" height="3.22"/>
  <polygon class="st0" points="36.66 22.65 30 22.65 30 16 36.66 22.65"/>
  <rect class="st0" x="19" y="34.79" width="18" height="3.22"/>
</svg>