<?xml version="1.0" encoding="UTF-8"?>
<svg id="Layer_1" xmlns="http://www.w3.org/2000/svg" version="1.1" viewBox="0 0 56 56">
  <!-- Generator: Adobe Illustrator 29.7.1, SVG Export Plug-In . SVG Version: 2.1.1 Build 8)  -->
  <defs>
    <style>
      .st0 {
        fill: #13131c;
      }
    </style>
  </defs>
  <path class="st0" d="M34.64,51.24h-13.28c-4.88,0-8.85-3.97-8.85-8.85V13.62c0-4.88,3.97-8.85,8.85-8.85h13.28c4.88,0,8.85,3.97,8.85,8.85v28.77c0,4.88-3.97,8.85-8.85,8.85ZM21.36,9.19c-2.44,0-4.43,1.99-4.43,4.43v28.77c0,2.44,1.99,4.43,4.43,4.43h13.28c2.44,0,4.43-1.99,4.43-4.43V13.62c0-2.44-1.99-4.43-4.43-4.43h-13.28Z"/>
  <path class="st0" d="M30.21,15.83h-4.43c-1.22,0-2.21-.99-2.21-2.21s.99-2.21,2.21-2.21h4.43c1.22,0,2.21.99,2.21,2.21s-.99,2.21-2.21,2.21Z"/>
</svg>