<?xml version="1.0" encoding="UTF-8"?>
<svg id="Layer_1" xmlns="http://www.w3.org/2000/svg" version="1.1" viewBox="0 0 56 56">
  <!-- Generator: Adobe Illustrator 29.7.1, SVG Export Plug-In . SVG Version: 2.1.1 Build 8)  -->
  <defs>
    <style>
      .st0 {
        fill: #d81a26;
      }

      .st1 {
        fill: #fff;
      }

      .st2 {
        fill: #13131c;
      }
    </style>
  </defs>
  <path class="st2" d="M41.2,51.47h-13.28c-4.88,0-8.85-3.97-8.85-8.85V13.85c0-4.88,3.97-8.85,8.85-8.85h13.28c4.88,0,8.85,3.97,8.85,8.85v28.77c0,4.88-3.97,8.85-8.85,8.85ZM27.92,9.43c-2.44,0-4.43,1.99-4.43,4.43v28.77c0,2.44,1.99,4.43,4.43,4.43h13.28c2.44,0,4.43-1.99,4.43-4.43V13.85c0-2.44-1.99-4.43-4.43-4.43h-13.28Z"/>
  <path class="st2" d="M36.77,16.07h-4.43c-1.22,0-2.21-.99-2.21-2.21s.99-2.21,2.21-2.21h4.43c1.22,0,2.21.99,2.21,2.21s-.99,2.21-2.21,2.21Z"/>
  <path class="st2" d="M41.74,44.48h-13.47c-.58,0-1.1-.21-1.55-.61-.49-.51-.71-1.04-.72-1.63l.05-18.31c0-.6.21-1.13.63-1.55.45-.46.98-.7,1.58-.7h7.54c.93,0,1.84.38,2.49,1.04l4.71,4.79c.65.66,1,1.53,1,2.45v12.27c0,.59-.22,1.12-.66,1.58-.5.46-1.02.67-1.6.67ZM28.43,24.06l-.05,18.07,13.24-.03v-12.14c0-.29-.11-.57-.32-.78l-4.71-4.79c-.21-.21-.5-.33-.79-.33h-7.37Z"/>
  <polygon class="st2" points="36 25.68 36 29.89 40.22 29.89 36 25.68"/>
  <rect class="st2" x="30" y="35.68" width="10" height="2.01"/>
  <rect class="st2" x="30" y="38.67" width="10" height="2.01"/>
  <g>
    <path class="st0" d="M14,25.68h16c4.42,0,8,3.58,8,8h0c0,4.42-3.58,8-8,8H14c-4.42,0-8-3.58-8-8h0c0-4.42,3.58-8,8-8Z"/>
    <path class="st1" d="M17.7,30.03v7.11h-1.46l-2.86-4.77v4.77h-1.46v-7.11h1.46l2.86,4.77v-4.77h1.46ZM23.75,35.99v1.14h-3.78v-1.14h3.78ZM20.44,30.03v7.11h-1.46v-7.11h1.46ZM23.25,32.92v1.11h-3.29v-1.11h3.29ZM23.74,30.03v1.15h-3.78v-1.15h3.78ZM26.32,36.01l1.42-5.98h.79l.18,1-1.51,6.11h-.85l-.03-1.13ZM25.59,30.03l1.17,5.98-.1,1.13h-.95l-1.58-7.11h1.45ZM29.95,35.98l1.16-5.96h1.45l-1.57,7.11h-.95l-.09-1.15ZM28.97,30.03l1.43,6.01-.04,1.1h-.85l-1.52-6.12.2-.99h.79Z"/>
  </g>
</svg>