<?xml version="1.0" encoding="UTF-8"?>
<svg id="Layer_1" xmlns="http://www.w3.org/2000/svg" version="1.1" viewBox="0 0 24 24">
  <!-- Generator: Adobe Illustrator 29.7.1, SVG Export Plug-In . SVG Version: 2.1.1 Build 8)  -->
  <defs>
    <style>
      .st0 {
        fill: #7e7e83;
      }

      .st1 {
        fill: #13131c;
      }
    </style>
  </defs>
  <path class="st1" d="M16.04,2c-1.86,0-3.54.91-4.63,2.3,2.23-.18,4.45.66,6.04,2.24,1.6,1.58,2.45,3.82,2.26,6.06,1.39-1.09,2.29-2.79,2.29-4.66,0-3.25-2.72-5.94-5.96-5.94Z"/>
  <path class="st0" d="M10.94,5.54c-2.06.36-3.87,1.76-4.78,3.64,2.41-.63,5.01.12,6.77,1.87,1.78,1.77,2.53,4.38,1.88,6.81,1.9-.91,3.31-2.74,3.66-4.83.35-2.07-.37-4.19-1.85-5.67-1.48-1.47-3.62-2.19-5.68-1.83h0Z"/>
  <path class="st1" d="M7.94,22c-3.27,0-5.94-2.66-5.94-5.94s2.66-5.94,5.94-5.94,5.94,2.66,5.94,5.94-2.66,5.94-5.94,5.94ZM7.94,11.73c-2.39,0-4.34,1.95-4.34,4.34s1.95,4.34,4.34,4.34,4.34-1.95,4.34-4.34-1.95-4.34-4.34-4.34Z"/>
</svg>