<svg width="24" height="24" viewBox="0 0 24 24" fill="none" xmlns="http://www.w3.org/2000/svg">
<path d="M19.1161 15.1161C19.6043 14.628 20.3955 14.628 20.8837 15.1161C21.3718 15.6043 21.3718 16.3955 20.8837 16.8837L19.7675 17.9999L20.8837 19.1161C21.3718 19.6043 21.3718 20.3955 20.8837 20.8837C20.3955 21.3718 19.6043 21.3719 19.1161 20.8837L17.9999 19.7675L16.8837 20.8837C16.3955 21.3719 15.6043 21.3719 15.1161 20.8837C14.628 20.3955 14.628 19.6043 15.1161 19.1161L16.2323 17.9999L15.1161 16.8837C14.628 16.3955 14.628 15.6043 15.1161 15.1161C15.6043 14.628 16.3955 14.628 16.8837 15.1161L17.9999 16.2323L19.1161 15.1161Z" fill="#D81A26"/>
<path d="M12 3C10.755 3 9.585 3.23625 8.49 3.70875C7.395 4.18125 6.4425 4.8225 5.6325 5.6325C4.8225 6.4425 4.18125 7.395 3.70875 8.49C3.23625 9.585 3 10.755 3 12C3 13.245 3.23625 14.415 3.70875 15.51C4.18125 16.605 4.8225 17.5575 5.6325 18.3675C6.4425 19.1775 7.395 19.8187 8.49 20.2912C9.585 20.7638 10.755 21 12 21C12.3 21 12.6 20.9813 12.9 20.9438C13.2 20.9062 13.5 20.8725 13.8 20.8425V18.9975C13.5 19.0275 13.2 19.0613 12.9 19.0988C12.6 19.1363 12.3 19.155 12 19.155C11.61 18.615 11.2725 18.0488 10.9875 17.4563C10.7025 16.8638 10.47 16.245 10.29 15.6H12.9V13.8H9.885C9.84 13.5 9.80625 13.2 9.78375 12.9C9.76125 12.6 9.75 12.3 9.75 12C9.75 11.7 9.76125 11.4 9.78375 11.1C9.80625 10.8 9.84 10.5 9.885 10.2H14.115C14.16 10.5 14.1938 10.8 14.2163 11.1C14.2388 11.4 14.25 11.7 14.25 12C14.25 12.3 14.2388 12.6 14.2163 12.9C14.1938 13.2 14.16 13.5 14.115 13.8H15.915C15.96 13.5 15.9938 13.2 16.0163 12.9C16.0388 12.6 16.05 12.3 16.05 12C16.05 11.7 16.0388 11.4 16.0163 11.1C15.9938 10.8 15.96 10.5 15.915 10.2H18.975C19.05 10.5 19.1062 10.8 19.1437 11.1C19.1812 11.4 19.2 11.7 19.2 12C19.2 12.3 19.1812 12.6 19.1437 12.9C19.1062 13.2 19.05 13.5 18.975 13.8H20.82C20.88 13.5 20.925 13.2 20.955 12.9C20.985 12.6 21 12.3 21 12C21 10.755 20.7637 9.585 20.2912 8.49C19.8187 7.395 19.1775 6.4425 18.3675 5.6325C17.5575 4.8225 16.605 4.18125 15.51 3.70875C14.415 3.23625 13.245 3 12 3ZM5.025 10.2H8.085C8.04 10.5 8.00625 10.8 7.98375 11.1C7.96125 11.4 7.95 11.7 7.95 12C7.95 12.3 7.96125 12.6 7.98375 12.9C8.00625 13.2 8.04 13.5 8.085 13.8H5.025C4.95 13.5 4.89375 13.2 4.85625 12.9C4.81875 12.6 4.8 12.3 4.8 12C4.8 11.7 4.81875 11.4 4.85625 11.1C4.89375 10.8 4.95 10.5 5.025 10.2ZM9.66 5.205C9.39 5.715 9.15375 6.23625 8.95125 6.76875C8.74875 7.30125 8.58 7.845 8.445 8.4H5.79C6.225 7.635 6.7725 6.97875 7.4325 6.43125C8.0925 5.88375 8.835 5.475 9.66 5.205ZM5.79 15.6H8.445C8.58 16.155 8.74875 16.6988 8.95125 17.2313C9.15375 17.7638 9.39 18.285 9.66 18.795C8.835 18.525 8.0925 18.1163 7.4325 17.5688C6.7725 17.0213 6.225 16.365 5.79 15.6ZM12 4.845C12.39 5.385 12.7275 5.95125 13.0125 6.54375C13.2975 7.13625 13.53 7.755 13.71 8.4H10.29C10.47 7.755 10.7025 7.13625 10.9875 6.54375C11.2725 5.95125 11.61 5.385 12 4.845ZM14.34 5.205C15.165 5.475 15.9075 5.88375 16.5675 6.43125C17.2275 6.97875 17.775 7.635 18.21 8.4H15.555C15.42 7.845 15.2512 7.30125 15.0487 6.76875C14.8462 6.23625 14.61 5.715 14.34 5.205Z" fill="#13131C"/>
</svg>
