<?xml version="1.0" encoding="UTF-8"?>
<svg id="Layer_1" xmlns="http://www.w3.org/2000/svg" version="1.1" viewBox="0 0 24 24">
  <!-- Generator: Adobe Illustrator 29.7.1, SVG Export Plug-In . SVG Version: 2.1.1 Build 8)  -->
  <defs>
    <style>
      .st0 {
        fill: #7e7e83;
      }

      .st1 {
        fill: #13131c;
      }
    </style>
  </defs>
  <path class="st1" d="M5.2,14c0,3.75,3.05,6.8,6.8,6.8.18,0,.36-.01.54-.03-.34.15-.72.23-1.11.23h-4.57c-1.58,0-2.86-1.28-2.86-2.86V6.95c0-1.57,1.28-2.86,2.86-2.86h4.57c1.57,0,2.86,1.29,2.86,2.86v.65c-.72-.26-1.49-.4-2.29-.4-3.75,0-6.8,3.05-6.8,6.8Z"/>
  <path class="st1" d="M9.32,2c1.02,0,1.44.41,1.6.74.11.21-.08.41-.32.41h-2.57c-.24,0-.42-.2-.32-.41.17-.33.58-.74,1.6-.74h0Z"/>
  <path class="st0" d="M14.29,7.6c-.72-.26-1.49-.4-2.29-.4-3.75,0-6.8,3.05-6.8,6.8s3.05,6.8,6.8,6.8c.18,0,.36-.01.54-.03,3.5-.27,6.26-3.2,6.26-6.77,0-2.95-1.89-5.46-4.51-6.4ZM12,19.2c-2.87,0-5.2-2.34-5.2-5.2s2.33-5.2,5.2-5.2,5.2,2.33,5.2,5.2-2.33,5.2-5.2,5.2Z"/>
  <path class="st1" d="M11.81,10.5c-1.06-.01-1.96.35-2.7,1.1-.74.74-1.11,1.64-1.11,2.7,0,.41.06.8.19,1.18.13.37.3.71.52,1.02l-.52.52c-.09.09-.15.2-.16.33.22.26.47.5.73.72h.01c.12-.03.22-.08.31-.16l.52-.53c.31.23.65.4,1.03.53.37.12.77.19,1.18.19,1.06,0,1.96-.37,2.7-1.11.75-.74,1.11-1.64,1.09-2.69v-3.8s-3.79,0-3.79,0ZM14.33,14.3c.02.69-.22,1.29-.71,1.79-.5.49-1.1.74-1.81.74-.25,0-.48-.03-.69-.09-.22-.06-.42-.14-.61-.26l1.74-1.74c.12-.12.18-.26.18-.44s-.06-.33-.18-.45c-.11-.11-.26-.17-.44-.17s-.33.06-.45.17l-1.74,1.74c-.12-.19-.21-.39-.26-.61-.06-.21-.09-.44-.09-.68,0-.71.25-1.31.74-1.81.5-.49,1.1-.74,1.8-.73h2.52v2.54Z"/>
</svg>