<svg width="24" height="24" viewBox="0 0 24 24" fill="none" xmlns="http://www.w3.org/2000/svg">
<path d="M19.3664 15.1145C18.8576 16.3183 18.0616 17.3792 17.0482 18.2042C16.0348 19.0293 14.8348 19.5934 13.5531 19.8474C12.2714 20.1013 10.947 20.0373 9.69574 19.6609C8.44448 19.2846 7.30442 18.6073 6.37525 17.6884C5.44608 16.7694 4.75608 15.6368 4.36559 14.3895C3.97509 13.1421 3.89598 11.8181 4.13518 10.5331C4.37438 9.24814 4.92461 8.04134 5.73775 7.01823C6.55089 5.99511 7.60219 5.18684 8.79974 4.66406" stroke="#0095E0" stroke-width="1.5" stroke-linecap="round" stroke-linejoin="round"/>
<path d="M20 12.0018C20 10.951 19.7931 9.91049 19.3911 8.93967C18.9891 7.96884 18.3999 7.08672 17.6571 6.34368C16.9144 5.60064 16.0326 5.01123 15.0621 4.6091C14.0916 4.20697 13.0514 4 12.001 4V12.0018H20Z" stroke="#D81A26" stroke-width="1.5" stroke-linecap="round" stroke-linejoin="round"/>
</svg>
