<?xml version="1.0" encoding="UTF-8"?>
<svg id="Layer_1" xmlns="http://www.w3.org/2000/svg" version="1.1" viewBox="0 0 24 24">
  <!-- Generator: Adobe Illustrator 29.7.1, SVG Export Plug-In . SVG Version: 2.1.1 Build 8)  -->
  <defs>
    <style>
      .st0 {
        fill: #d81a26;
      }
    </style>
  </defs>
  <path d="M21.2,14c0-.28.23-.5.48-.38.35.17.77.58.77,1.54s-.42,1.37-.77,1.54c-.25.12-.48-.1-.48-.38v-2.33h0Z"/>
  <path class="st0" d="M15.45,11c0-2.32-1.88-4.2-4.2-4.2s-4.2,1.88-4.2,4.2,1.88,4.2,4.2,4.2,4.2-1.88,4.2-4.2ZM17.05,11c0,3.2-2.6,5.8-5.8,5.8s-5.8-2.6-5.8-5.8,2.6-5.8,5.8-5.8,5.8,2.6,5.8,5.8Z"/>
  <path d="M17.37,10h-.41c.06.32.09.66.09,1,0,.2-.01.4-.03.6h.18c.94,0,1.7.76,1.7,1.7v3.4c0,.94-.76,1.7-1.7,1.7H5.3c-.94,0-1.7-.76-1.7-1.7v-3.4c0-.94.76-1.7,1.7-1.7h.18c-.02-.2-.03-.4-.03-.6,0-.34.04-.67.09-1h-.24c-1.77,0-3.21,1.39-3.3,3.13v3.57c0,1.82,1.48,3.3,3.3,3.3h12.07c1.74-.09,3.13-1.53,3.13-3.3v-3.4c0-1.77-1.39-3.21-3.13-3.3Z"/>
  <path class="st0" d="M13.25,10.2c.44,0,.8.36.8.8s-.36.8-.8.8h-4c-.44,0-.8-.36-.8-.8s.36-.8.8-.8h4Z"/>
</svg>